<?xml version="1.0" encoding="utf-8"?>
<!-- Generator: Adobe Illustrator 22.0.1, SVG Export Plug-In . SVG Version: 6.00 Build 0)  -->
<svg version="1.1" id="Ebene_1" xmlns="http://www.w3.org/2000/svg" xmlns:xlink="http://www.w3.org/1999/xlink" x="0px" y="0px"
	 viewBox="0 0 750 750" style="enable-background:new 0 0 750 750;" xml:space="preserve">
<style type="text/css">
	.st0{clip-path:url(#SVGID_2_);fill:#444444;}
</style>
<g>
	<g>
		<defs>
			<rect id="SVGID_1_" x="3.2" y="15" width="739.2" height="720"/>
		</defs>
		<clipPath id="SVGID_2_">
			<use xlink:href="#SVGID_1_"  style="overflow:visible;"/>
		</clipPath>
		<path class="st0" d="M682.4,256.2C614.4,108.8,505.1-3.4,449.7,17.5c-94,35.6,56,206.5-405.5,381.3C4.3,414-5.8,474.4,10.9,510.5
			c16.6,36.1,71.2,72.1,111,57c6.9-2.6,32.2-10.2,32.2-10.2c28.5,35.6,58.3,14.5,68.8,37.1c12.7,27.2,40.3,86.3,49.7,106.4
			c9.4,20.1,30.7,38.7,46.2,33.2c15.4-5.5,67.9-24.1,88-31.2c20.1-7.1,24.9-23.8,18.7-37c-6.6-14.2-33.7-18.3-41.5-34.9
			c-7.7-16.5-33-69.6-40.3-86.2c-9.9-22.7,11.1-41.2,41.6-44.2c210.1-20.4,249.3,100.5,320.9,73.4
			C761.7,552.9,750.4,403.5,682.4,256.2L682.4,256.2z M658.8,495.2c-12.3,4.6-95-56.1-147.8-170.7
			c-52.8-114.5-46.2-219.3-33.9-223.9c12.3-4.6,92.9,68.6,145.7,183.2C675.6,398.4,671,490.6,658.8,495.2L658.8,495.2z M658.8,495.2
			"/>
	</g>
</g>
</svg>
