<?xml version="1.0" encoding="utf-8"?>
<!-- Generator: Adobe Illustrator 22.0.1, SVG Export Plug-In . SVG Version: 6.00 Build 0)  -->
<svg version="1.1" id="Ebene_1" xmlns="http://www.w3.org/2000/svg" xmlns:xlink="http://www.w3.org/1999/xlink" x="0px" y="0px"
	 viewBox="0 0 750 750" style="enable-background:new 0 0 750 750;" xml:space="preserve">
<style type="text/css">
	.st0{fill:#444444;}
</style>
<g id="_x31_1_1_">
	<path class="st0" d="M309.9,351.6c-6.6,0-12,5.4-12,12c0,6.6,5.4,12,12,12c6.6,0,12-5.4,12-12C321.9,356.9,316.5,351.6,309.9,351.6
		z M309.9,351.6c-6.6,0-12,5.4-12,12c0,6.6,5.4,12,12,12c6.6,0,12-5.4,12-12C321.9,356.9,316.5,351.6,309.9,351.6z M309.9,351.6
		c-6.6,0-12,5.4-12,12c0,6.6,5.4,12,12,12c6.6,0,12-5.4,12-12C321.9,356.9,316.5,351.6,309.9,351.6z M440.1,425.3
		c-6.6,0-12,5.4-12,12c0,6.6,5.4,12,12,12c6.6,0,12-5.4,12-12C452,430.7,446.7,425.3,440.1,425.3z M309.9,351.6c-6.6,0-12,5.4-12,12
		c0,6.6,5.4,12,12,12c6.6,0,12-5.4,12-12C321.9,356.9,316.5,351.6,309.9,351.6z M440.1,425.3c-6.6,0-12,5.4-12,12
		c0,6.6,5.4,12,12,12c6.6,0,12-5.4,12-12C452,430.7,446.7,425.3,440.1,425.3z M309.9,351.6c-6.6,0-12,5.4-12,12c0,6.6,5.4,12,12,12
		c6.6,0,12-5.4,12-12C321.9,356.9,316.5,351.6,309.9,351.6z M440.1,425.3c-6.6,0-12,5.4-12,12c0,6.6,5.4,12,12,12
		c6.6,0,12-5.4,12-12C452,430.7,446.7,425.3,440.1,425.3z M309.9,351.6c-6.6,0-12,5.4-12,12c0,6.6,5.4,12,12,12c6.6,0,12-5.4,12-12
		C321.9,356.9,316.5,351.6,309.9,351.6z M440.1,425.3c-6.6,0-12,5.4-12,12c0,6.6,5.4,12,12,12c6.6,0,12-5.4,12-12
		C452,430.7,446.7,425.3,440.1,425.3z M309.9,351.6c-6.6,0-12,5.4-12,12c0,6.6,5.4,12,12,12c6.6,0,12-5.4,12-12
		C321.9,356.9,316.5,351.6,309.9,351.6z M440.1,425.3c-6.6,0-12,5.4-12,12c0,6.6,5.4,12,12,12c6.6,0,12-5.4,12-12
		C452,430.7,446.7,425.3,440.1,425.3z M309.9,351.6c-6.6,0-12,5.4-12,12c0,6.6,5.4,12,12,12c6.6,0,12-5.4,12-12
		C321.9,356.9,316.5,351.6,309.9,351.6z M440.1,425.3c-6.6,0-12,5.4-12,12c0,6.6,5.4,12,12,12c6.6,0,12-5.4,12-12
		C452,430.7,446.7,425.3,440.1,425.3z M309.9,351.6c-6.6,0-12,5.4-12,12c0,6.6,5.4,12,12,12c6.6,0,12-5.4,12-12
		C321.9,356.9,316.5,351.6,309.9,351.6z M440.1,425.3c-6.6,0-12,5.4-12,12c0,6.6,5.4,12,12,12c6.6,0,12-5.4,12-12
		C452,430.7,446.7,425.3,440.1,425.3z M309.9,351.6c-6.6,0-12,5.4-12,12c0,6.6,5.4,12,12,12c6.6,0,12-5.4,12-12
		C321.9,356.9,316.5,351.6,309.9,351.6z M440.1,425.3c-6.6,0-12,5.4-12,12c0,6.6,5.4,12,12,12c6.6,0,12-5.4,12-12
		C452,430.7,446.7,425.3,440.1,425.3z M309.9,351.6c-6.6,0-12,5.4-12,12c0,6.6,5.4,12,12,12c6.6,0,12-5.4,12-12
		C321.9,356.9,316.5,351.6,309.9,351.6z M440.1,425.3c-6.6,0-12,5.4-12,12c0,6.6,5.4,12,12,12c6.6,0,12-5.4,12-12
		C452,430.7,446.7,425.3,440.1,425.3z M309.9,351.6c-6.6,0-12,5.4-12,12c0,6.6,5.4,12,12,12c6.6,0,12-5.4,12-12
		C321.9,356.9,316.5,351.6,309.9,351.6z M440.1,425.3c-6.6,0-12,5.4-12,12c0,6.6,5.4,12,12,12c6.6,0,12-5.4,12-12
		C452,430.7,446.7,425.3,440.1,425.3z M309.9,351.6c-6.6,0-12,5.4-12,12c0,6.6,5.4,12,12,12c6.6,0,12-5.4,12-12
		C321.9,356.9,316.5,351.6,309.9,351.6z M440.1,425.3c-6.6,0-12,5.4-12,12c0,6.6,5.4,12,12,12c6.6,0,12-5.4,12-12
		C452,430.7,446.7,425.3,440.1,425.3z M309.9,351.6c-6.6,0-12,5.4-12,12c0,6.6,5.4,12,12,12c6.6,0,12-5.4,12-12
		C321.9,356.9,316.5,351.6,309.9,351.6z M440.1,425.3c-6.6,0-12,5.4-12,12c0,6.6,5.4,12,12,12c6.6,0,12-5.4,12-12
		C452,430.7,446.7,425.3,440.1,425.3z M309.9,351.6c-6.6,0-12,5.4-12,12c0,6.6,5.4,12,12,12c6.6,0,12-5.4,12-12
		C321.9,356.9,316.5,351.6,309.9,351.6z M440.1,425.3c-6.6,0-12,5.4-12,12c0,6.6,5.4,12,12,12c6.6,0,12-5.4,12-12
		C452,430.7,446.7,425.3,440.1,425.3z M309.9,351.6c-6.6,0-12,5.4-12,12c0,6.6,5.4,12,12,12c6.6,0,12-5.4,12-12
		C321.9,356.9,316.5,351.6,309.9,351.6z M440.1,425.3c-6.6,0-12,5.4-12,12c0,6.6,5.4,12,12,12c6.6,0,12-5.4,12-12
		C452,430.7,446.7,425.3,440.1,425.3z M309.9,351.6c-6.6,0-12,5.4-12,12c0,6.6,5.4,12,12,12c6.6,0,12-5.4,12-12
		C321.9,356.9,316.5,351.6,309.9,351.6z M440.1,425.3c-6.6,0-12,5.4-12,12c0,6.6,5.4,12,12,12c6.6,0,12-5.4,12-12
		C452,430.7,446.7,425.3,440.1,425.3z M309.9,351.6c-6.6,0-12,5.4-12,12c0,6.6,5.4,12,12,12c6.6,0,12-5.4,12-12
		C321.9,356.9,316.5,351.6,309.9,351.6z M440.1,425.3c-6.6,0-12,5.4-12,12c0,6.6,5.4,12,12,12c6.6,0,12-5.4,12-12
		C452,430.7,446.7,425.3,440.1,425.3z M309.9,351.6c-6.6,0-12,5.4-12,12c0,6.6,5.4,12,12,12c6.6,0,12-5.4,12-12
		C321.9,356.9,316.5,351.6,309.9,351.6z M440.1,425.3c-6.6,0-12,5.4-12,12c0,6.6,5.4,12,12,12c6.6,0,12-5.4,12-12
		C452,430.7,446.7,425.3,440.1,425.3z M309.9,351.6c-6.6,0-12,5.4-12,12c0,6.6,5.4,12,12,12c6.6,0,12-5.4,12-12
		C321.9,356.9,316.5,351.6,309.9,351.6z M440.1,425.3c-6.6,0-12,5.4-12,12c0,6.6,5.4,12,12,12c6.6,0,12-5.4,12-12
		C452,430.7,446.7,425.3,440.1,425.3z M309.9,351.6c-6.6,0-12,5.4-12,12c0,6.6,5.4,12,12,12c6.6,0,12-5.4,12-12
		C321.9,356.9,316.5,351.6,309.9,351.6z M440.1,425.3c-6.6,0-12,5.4-12,12c0,6.6,5.4,12,12,12c6.6,0,12-5.4,12-12
		C452,430.7,446.7,425.3,440.1,425.3z M309.9,351.6c-6.6,0-12,5.4-12,12c0,6.6,5.4,12,12,12c6.6,0,12-5.4,12-12
		C321.9,356.9,316.5,351.6,309.9,351.6z M440.1,425.3c-6.6,0-12,5.4-12,12c0,6.6,5.4,12,12,12c6.6,0,12-5.4,12-12
		C452,430.7,446.7,425.3,440.1,425.3z M309.9,351.6c-6.6,0-12,5.4-12,12c0,6.6,5.4,12,12,12c6.6,0,12-5.4,12-12
		C321.9,356.9,316.5,351.6,309.9,351.6z M440.1,425.3c-6.6,0-12,5.4-12,12c0,6.6,5.4,12,12,12c6.6,0,12-5.4,12-12
		C452,430.7,446.7,425.3,440.1,425.3z M309.9,351.6c-6.6,0-12,5.4-12,12c0,6.6,5.4,12,12,12c6.6,0,12-5.4,12-12
		C321.9,356.9,316.5,351.6,309.9,351.6z M440.1,425.3c-6.6,0-12,5.4-12,12c0,6.6,5.4,12,12,12c6.6,0,12-5.4,12-12
		C452,430.7,446.7,425.3,440.1,425.3z M739.5,306.7V191.6H10.5V307c30,17,50.2,49.2,50.2,86.1c0,36.9-20.2,69.1-50.2,86.1v129.8
		h729.1V479.3c-30.2-16.9-50.7-49.2-50.7-86.3S709.3,323.6,739.5,306.7z M116.6,348.9c8.3,0,15,6.7,15,15v72.8c0,8.3-6.7,15-15,15
		s-15-6.7-15-15v-72.8C101.6,355.6,108.3,348.9,116.6,348.9z M101.6,291v-32.2c0-8.3,6.7-15,15-15h32.2c8.3,0,15,6.7,15,15
		c0,8.3-6.7,15-15,15h-17.2V291c0,8.3-6.7,15-15,15S101.6,299.3,101.6,291z M116.6,494.4c8.3,0,15,6.7,15,15v17.2h17.2
		c8.3,0,15,6.7,15,15c0,8.3-6.7,15-15,15h-32.2c-8.3,0-15-6.7-15-15v-32.2C101.6,501.1,108.3,494.4,116.6,494.4z M536.6,273.8H472
		c-8.3,0-15-6.7-15-15c0-8.3,6.7-15,15-15h64.6c8.3,0,15,6.7,15,15C551.6,267.1,544.9,273.8,536.6,273.8z M551.6,541.5
		c0,8.3-6.7,15-15,15H472c-8.3,0-15-6.7-15-15c0-8.3,6.7-15,15-15h64.7C544.9,526.5,551.6,533.2,551.6,541.5z M481.9,437.3
		c0,23.1-18.8,41.9-41.9,41.9c-23.1,0-41.9-18.8-41.9-41.9s18.8-41.9,41.9-41.9C463.2,395.4,481.9,414.2,481.9,437.3z M422.3,541.5
		c0,8.3-6.7,15-15,15h-64.6c-8.3,0-15-6.7-15-15c0-8.3,6.7-15,15-15h64.6C415.6,526.5,422.3,533.2,422.3,541.5z M438.5,341.9
		L336.8,476.5c-2.9,3.9-7.4,5.9-12,5.9c-3.1,0-6.3-1-9-3c-6.6-5-7.9-14.4-2.9-21l101.7-134.6c5-6.6,14.4-7.9,21-2.9
		C442.2,325.9,443.5,335.3,438.5,341.9z M407.3,273.8h-64.6c-8.3,0-15-6.7-15-15c0-8.3,6.7-15,15-15h64.6c8.3,0,15,6.7,15,15
		C422.3,267.1,415.6,273.8,407.3,273.8z M351.8,363.5c0,23.1-18.8,41.9-41.9,41.9c-23.1,0-41.9-18.8-41.9-41.9
		c0-23.1,18.8-41.9,41.9-41.9C333,321.7,351.8,340.4,351.8,363.5z M278,273.8h-64.7c-8.3,0-15-6.7-15-15c0-8.3,6.7-15,15-15H278
		c8.3,0,15,6.7,15,15C293,267.1,286.3,273.8,278,273.8z M213.4,526.5H278c8.3,0,15,6.7,15,15c0,8.3-6.7,15-15,15h-64.7
		c-8.3,0-15-6.7-15-15C198.4,533.2,205.1,526.5,213.4,526.5z M633.4,306c-8.3,0-15-6.7-15-15v-17.2h-17.2c-8.3,0-15-6.7-15-15
		c0-8.3,6.7-15,15-15h32.2c8.3,0,15,6.7,15,15V291C648.4,299.3,641.7,306,633.4,306z M648.4,363.8v72.8c0,8.3-6.7,15-15,15
		c-8.3,0-15-6.7-15-15v-72.8c0-8.3,6.7-15,15-15C641.7,348.9,648.4,355.6,648.4,363.8z M601.3,526.5h17.2v-17.2c0-8.3,6.7-15,15-15
		c8.3,0,15,6.7,15,15v32.2c0,8.3-6.7,15-15,15h-32.2c-8.3,0-15-6.7-15-15C586.3,533.2,593,526.5,601.3,526.5z M428.1,437.3
		c0,6.6,5.4,12,12,12c6.6,0,12-5.4,12-12c0-6.6-5.4-12-12-12C433.5,425.3,428.1,430.7,428.1,437.3z M298,363.5c0,6.6,5.4,12,12,12
		c6.6,0,12-5.4,12-12c0-6.6-5.4-12-12-12C303.3,351.6,298,356.9,298,363.5z M440.1,425.3c-6.6,0-12,5.4-12,12c0,6.6,5.4,12,12,12
		c6.6,0,12-5.4,12-12C452,430.7,446.7,425.3,440.1,425.3z M309.9,351.6c-6.6,0-12,5.4-12,12c0,6.6,5.4,12,12,12c6.6,0,12-5.4,12-12
		C321.9,356.9,316.5,351.6,309.9,351.6z M440.1,425.3c-6.6,0-12,5.4-12,12c0,6.6,5.4,12,12,12c6.6,0,12-5.4,12-12
		C452,430.7,446.7,425.3,440.1,425.3z M309.9,351.6c-6.6,0-12,5.4-12,12c0,6.6,5.4,12,12,12c6.6,0,12-5.4,12-12
		C321.9,356.9,316.5,351.6,309.9,351.6z M440.1,425.3c-6.6,0-12,5.4-12,12c0,6.6,5.4,12,12,12c6.6,0,12-5.4,12-12
		C452,430.7,446.7,425.3,440.1,425.3z M309.9,351.6c-6.6,0-12,5.4-12,12c0,6.6,5.4,12,12,12c6.6,0,12-5.4,12-12
		C321.9,356.9,316.5,351.6,309.9,351.6z M440.1,425.3c-6.6,0-12,5.4-12,12c0,6.6,5.4,12,12,12c6.6,0,12-5.4,12-12
		C452,430.7,446.7,425.3,440.1,425.3z M309.9,351.6c-6.6,0-12,5.4-12,12c0,6.6,5.4,12,12,12c6.6,0,12-5.4,12-12
		C321.9,356.9,316.5,351.6,309.9,351.6z M440.1,425.3c-6.6,0-12,5.4-12,12c0,6.6,5.4,12,12,12c6.6,0,12-5.4,12-12
		C452,430.7,446.7,425.3,440.1,425.3z M309.9,351.6c-6.6,0-12,5.4-12,12c0,6.6,5.4,12,12,12c6.6,0,12-5.4,12-12
		C321.9,356.9,316.5,351.6,309.9,351.6z M440.1,425.3c-6.6,0-12,5.4-12,12c0,6.6,5.4,12,12,12c6.6,0,12-5.4,12-12
		C452,430.7,446.7,425.3,440.1,425.3z M309.9,351.6c-6.6,0-12,5.4-12,12c0,6.6,5.4,12,12,12c6.6,0,12-5.4,12-12
		C321.9,356.9,316.5,351.6,309.9,351.6z M440.1,425.3c-6.6,0-12,5.4-12,12c0,6.6,5.4,12,12,12c6.6,0,12-5.4,12-12
		C452,430.7,446.7,425.3,440.1,425.3z M309.9,351.6c-6.6,0-12,5.4-12,12c0,6.6,5.4,12,12,12c6.6,0,12-5.4,12-12
		C321.9,356.9,316.5,351.6,309.9,351.6z M440.1,425.3c-6.6,0-12,5.4-12,12c0,6.6,5.4,12,12,12c6.6,0,12-5.4,12-12
		C452,430.7,446.7,425.3,440.1,425.3z M309.9,351.6c-6.6,0-12,5.4-12,12c0,6.6,5.4,12,12,12c6.6,0,12-5.4,12-12
		C321.9,356.9,316.5,351.6,309.9,351.6z M440.1,425.3c-6.6,0-12,5.4-12,12c0,6.6,5.4,12,12,12c6.6,0,12-5.4,12-12
		C452,430.7,446.7,425.3,440.1,425.3z M309.9,351.6c-6.6,0-12,5.4-12,12c0,6.6,5.4,12,12,12c6.6,0,12-5.4,12-12
		C321.9,356.9,316.5,351.6,309.9,351.6z M440.1,425.3c-6.6,0-12,5.4-12,12c0,6.6,5.4,12,12,12c6.6,0,12-5.4,12-12
		C452,430.7,446.7,425.3,440.1,425.3z M309.9,351.6c-6.6,0-12,5.4-12,12c0,6.6,5.4,12,12,12c6.6,0,12-5.4,12-12
		C321.9,356.9,316.5,351.6,309.9,351.6z M440.1,425.3c-6.6,0-12,5.4-12,12c0,6.6,5.4,12,12,12c6.6,0,12-5.4,12-12
		C452,430.7,446.7,425.3,440.1,425.3z M309.9,351.6c-6.6,0-12,5.4-12,12c0,6.6,5.4,12,12,12c6.6,0,12-5.4,12-12
		C321.9,356.9,316.5,351.6,309.9,351.6z M440.1,425.3c-6.6,0-12,5.4-12,12c0,6.6,5.4,12,12,12c6.6,0,12-5.4,12-12
		C452,430.7,446.7,425.3,440.1,425.3z M309.9,351.6c-6.6,0-12,5.4-12,12c0,6.6,5.4,12,12,12c6.6,0,12-5.4,12-12
		C321.9,356.9,316.5,351.6,309.9,351.6z M440.1,425.3c-6.6,0-12,5.4-12,12c0,6.6,5.4,12,12,12c6.6,0,12-5.4,12-12
		C452,430.7,446.7,425.3,440.1,425.3z M309.9,351.6c-6.6,0-12,5.4-12,12c0,6.6,5.4,12,12,12c6.6,0,12-5.4,12-12
		C321.9,356.9,316.5,351.6,309.9,351.6z M440.1,425.3c-6.6,0-12,5.4-12,12c0,6.6,5.4,12,12,12c6.6,0,12-5.4,12-12
		C452,430.7,446.7,425.3,440.1,425.3z M309.9,351.6c-6.6,0-12,5.4-12,12c0,6.6,5.4,12,12,12c6.6,0,12-5.4,12-12
		C321.9,356.9,316.5,351.6,309.9,351.6z M440.1,425.3c-6.6,0-12,5.4-12,12c0,6.6,5.4,12,12,12c6.6,0,12-5.4,12-12
		C452,430.7,446.7,425.3,440.1,425.3z M309.9,351.6c-6.6,0-12,5.4-12,12c0,6.6,5.4,12,12,12c6.6,0,12-5.4,12-12
		C321.9,356.9,316.5,351.6,309.9,351.6z M440.1,425.3c-6.6,0-12,5.4-12,12c0,6.6,5.4,12,12,12c6.6,0,12-5.4,12-12
		C452,430.7,446.7,425.3,440.1,425.3z M309.9,351.6c-6.6,0-12,5.4-12,12c0,6.6,5.4,12,12,12c6.6,0,12-5.4,12-12
		C321.9,356.9,316.5,351.6,309.9,351.6z M440.1,425.3c-6.6,0-12,5.4-12,12c0,6.6,5.4,12,12,12c6.6,0,12-5.4,12-12
		C452,430.7,446.7,425.3,440.1,425.3z M309.9,351.6c-6.6,0-12,5.4-12,12c0,6.6,5.4,12,12,12c6.6,0,12-5.4,12-12
		C321.9,356.9,316.5,351.6,309.9,351.6z M440.1,425.3c-6.6,0-12,5.4-12,12c0,6.6,5.4,12,12,12c6.6,0,12-5.4,12-12
		C452,430.7,446.7,425.3,440.1,425.3z M309.9,351.6c-6.6,0-12,5.4-12,12c0,6.6,5.4,12,12,12c6.6,0,12-5.4,12-12
		C321.9,356.9,316.5,351.6,309.9,351.6z M440.1,425.3c-6.6,0-12,5.4-12,12c0,6.6,5.4,12,12,12c6.6,0,12-5.4,12-12
		C452,430.7,446.7,425.3,440.1,425.3z M309.9,351.6c-6.6,0-12,5.4-12,12c0,6.6,5.4,12,12,12c6.6,0,12-5.4,12-12
		C321.9,356.9,316.5,351.6,309.9,351.6z M440.1,425.3c-6.6,0-12,5.4-12,12c0,6.6,5.4,12,12,12c6.6,0,12-5.4,12-12
		C452,430.7,446.7,425.3,440.1,425.3z M309.9,351.6c-6.6,0-12,5.4-12,12c0,6.6,5.4,12,12,12c6.6,0,12-5.4,12-12
		C321.9,356.9,316.5,351.6,309.9,351.6z M309.9,351.6c-6.6,0-12,5.4-12,12c0,6.6,5.4,12,12,12c6.6,0,12-5.4,12-12
		C321.9,356.9,316.5,351.6,309.9,351.6z M309.9,351.6c-6.6,0-12,5.4-12,12c0,6.6,5.4,12,12,12c6.6,0,12-5.4,12-12
		C321.9,356.9,316.5,351.6,309.9,351.6z"/>
	<path class="st0" d="M744.6,315.8c3.3-1.9,5.4-5.4,5.4-9.1V191.6c0-5.8-4.7-10.5-10.5-10.5H10.5c-5.8,0-10.5,4.7-10.5,10.5V307
		c0,3.8,2,7.2,5.3,9.1C33,331.8,50.2,361.3,50.2,393S33,454.2,5.3,469.9C2,471.8,0,475.3,0,479.1v129.8c0,5.8,4.7,10.5,10.5,10.5
		h729.1c5.8,0,10.5-4.7,10.5-10.5V479.3c0-3.8-2-7.3-5.4-9.1c-28-15.6-45.3-45.2-45.3-77.2C699.3,361,716.7,331.5,744.6,315.8z
		 M678.4,393c0,37.5,19.3,72.3,50.7,92.3v113.1H20.9V485C52,464.9,71.1,430.2,71.1,393c0-37.2-19.1-71.9-50.2-91.9v-99h708.1v98.7
		C697.6,320.7,678.4,355.5,678.4,393z"/>
</g>
</svg>
