<?xml version="1.0" encoding="utf-8"?>
<!-- Generator: Adobe Illustrator 22.0.1, SVG Export Plug-In . SVG Version: 6.00 Build 0)  -->
<svg version="1.1" id="Ebene_1" xmlns="http://www.w3.org/2000/svg" xmlns:xlink="http://www.w3.org/1999/xlink" x="0px" y="0px"
	 viewBox="0 0 750 750" style="enable-background:new 0 0 750 750;" xml:space="preserve">
<style type="text/css">
	.st0{fill:url(#SVGID_1_);}
	.st1{fill:#FFFFFF;}
	.st2{fill:#39C723;}
</style>
<g>
	<linearGradient id="SVGID_1_" gradientUnits="userSpaceOnUse" x1="374.7079" y1="0.2917" x2="374.7079" y2="750.2917">
		<stop  offset="0" style="stop-color:#00FF00"/>
		<stop  offset="1" style="stop-color:#009245"/>
	</linearGradient>
	<circle class="st0" cx="374.7" cy="375.3" r="375"/>
</g>
<g>
	<path class="st1" d="M263.2,519.7h-57V230.9h57V519.7z"/>
	<path class="st1" d="M543.2,374.1c0,32.2-0.8,53.3-2.5,63.3c-3.6,22.2-12.6,40.4-27.1,54.8c-18.6,18.4-44.3,27.6-77.1,27.6H331.2
		V230.9h105.4c32.8,0,58.5,9.2,77.1,27.6c14.5,14.3,23.5,32.2,27.1,53.5C542.4,321.7,543.2,342.4,543.2,374.1z M486.2,374.1
		c0-23.3-0.7-39.6-2-49.1c-1.6-11.1-5.1-19.7-10.2-26c-9.8-11.9-24.1-17.8-42.6-17.8h-43v188.2h43c18.6,0,32.8-5.9,42.6-17.8
		c5.2-6.2,8.6-15.3,10.2-27.2C485.5,414.4,486.2,397.6,486.2,374.1z"/>
</g>
<g>
	<path class="st2" d="M556.9,334.1l-4.6-49.3l-4.4-1.9l-39.2,30.2l0.1,0c0,0,0.1-0.4,0-0.4c-2.7,6.3,5.9,15.8,19.2,21.6
		c13.3,5.8,26.1,5.7,28.9-0.5C556.9,333.8,556.8,334.1,556.9,334.1L556.9,334.1z"/>
	<g>
		<path class="st2" d="M596,228.3l-149.3-65l-27.1,62.2l0,0c-0.1,0.2-0.2,0.3-0.2,0.5c-6.4,14.8,11.4,37.3,41.4,54.8
			c6,3.5,15.1,7.6,19.4,9.4c4.3,1.9,13.4,5.7,19.9,7.7c33.3,10.1,62.1,7.8,68.5-7c0.1-0.2,0.1-0.3,0.2-0.5l0,0L596,228.3z"/>
	</g>
	<g>
		<path class="st1" d="M596,218.5L455,157.1l-27.1,62.2l0,0c-0.1,0.2-0.2,0.3-0.2,0.5c-6.4,14.8,10.1,36.8,38.4,53.5
			c5.6,3.3,14.3,7.2,18.3,9c4.1,1.8,12.6,5.4,18.9,7.3c31.6,9.4,59.1,6.5,65.5-8.3c0.1-0.2,0.1-0.3,0.2-0.5l0,0L596,218.5z"/>
	</g>
	<g id="XMLID_1_">
		<g>
			<path class="st2" d="M643.8,234.2c-0.7,1.5-1.3,4.5-3.8,4.5l-130-1.5c-3.8-0.1-7.4-1.6-10-4.4l-89.7-94.2
				c-1.7-1.8,0.2-4.7,0.7-5.9l130.2,6.3c3.5,0.1,6.9,1.6,9.3,4.1L643.8,234.2z"/>
		</g>
	</g>
	<g id="XMLID_2_">
		<g>
			<path class="st1" d="M644.2,228.8c1.8,1.8,0.5,4.8-2,4.8l-130-1.5c-3.8-0.1-7.4-1.6-10-4.4l-89.7-94.2c-1.7-1.8-0.4-4.9,2.1-4.8
				l128.7,5.2c3.5,0.1,6.9,1.6,9.3,4.1L644.2,228.8z"/>
		</g>
	</g>
	<path class="st1" d="M550.3,325.9l-1.6-34.1l-2.8-1.2l-26,22.1l0.1,0c0,0,0.1-0.3,0-0.3c-1.9,4.5,3.4,10.8,11.8,14.5
		c8.4,3.7,16.7,3.3,18.6-1.2C550.3,325.7,550.2,325.9,550.3,325.9L550.3,325.9z"/>
	<g>
		<path class="st2" d="M552.6,285l21.6-49.6c0.4-0.9,0.2-2-0.5-2.7l-45.5-46.6c-0.9-1-2.5-1-3.5,0c-1,0.9-1,2.5,0,3.5l44.4,45.4
			l-20.9,48c-3.9-0.5-7.9,1.5-9.5,5.3c-2,4.6,0.1,9.9,4.7,11.9c4.6,2,9.9-0.1,11.9-4.7C556.9,291.8,555.7,287.5,552.6,285z"/>
	</g>
	<path class="st2" d="M559.2,297.3c-2.9,6.8-10.8,9.9-17.6,6.9c-6.8-2.9-9.9-10.8-6.9-17.6c2.9-6.8,10.8-9.9,17.6-6.9
		C559.1,282.6,562.2,290.5,559.2,297.3z"/>
</g>
</svg>
