<?xml version="1.0" encoding="utf-8"?>
<!-- Generator: Adobe Illustrator 22.0.1, SVG Export Plug-In . SVG Version: 6.00 Build 0)  -->
<svg version="1.1" id="Ebene_1" xmlns="http://www.w3.org/2000/svg" xmlns:xlink="http://www.w3.org/1999/xlink" x="0px" y="0px"
	 viewBox="0 0 750 750" style="enable-background:new 0 0 750 750;" xml:space="preserve">
<style type="text/css">
	.st0{fill:#444444;}
</style>
<g id="_x31_3_1_">
	<path class="st0" d="M746.9,635.1l-78-232c-8.1-24-30.5-40.2-55.9-40.2H499c30.6-55.5,55.4-111.9,55.4-148.9
		C554.4,116.4,475,37,377.3,37s-177.1,79.4-177.1,177.1c0,37,24.8,93.4,55.4,148.9H141.6c-25.4,0-47.8,16.1-55.9,40.2l-78,232
		c-6,17.9-3,37.8,8,53.2c11.1,15.4,29,24.6,47.9,24.6H691c18.9,0,36.8-9.2,47.9-24.6C750,673,753,653.1,746.9,635.1z M377.3,134.9
		c43.7,0,79.2,35.5,79.2,79.2s-35.5,79.2-79.2,79.2s-79.2-35.5-79.2-79.2S333.7,134.9,377.3,134.9z M698,659c-1,1.3-3.2,3.6-7,3.6
		H63.6c-3.8,0-6-2.2-7-3.6c-1-1.3-2.4-4.1-1.2-7.8l78-232c1.2-3.5,4.5-5.9,8.2-5.9h139.6c1.2,0,2.4-0.1,3.6-0.3
		c40,65.5,79.7,120,83,124.5c2.2,3,5.7,4.8,9.5,4.8c3.7,0,7.3-1.8,9.5-4.8c3.3-4.5,43-58.9,83-124.4c0.9,0.1,1.8,0.2,2.8,0.2h140.5
		c3.7,0,7,2.4,8.2,5.9l78,232C700.4,654.8,699,657.6,698,659z"/>
</g>
</svg>
