<?xml version="1.0" encoding="utf-8"?>
<!-- Generator: Adobe Illustrator 22.1.0, SVG Export Plug-In . SVG Version: 6.00 Build 0)  -->
<svg version="1.1" xmlns="http://www.w3.org/2000/svg" xmlns:xlink="http://www.w3.org/1999/xlink" x="0px" y="0px"
	 viewBox="0 0 1332 397" style="enable-background:new 0 0 1332 397;" xml:space="preserve">
<style type="text/css">
	.st0{fill:#4BEA06;}
	.st1{fill:#FFFFFF;}
</style>
<g id="Ebene_2_xA0_Bild_1_">
	<rect width="1332" height="397"/>
</g>
<g id="Ebene_3_xA0_Bild_1_">
	<polygon class="st0" points="1201.4,0 1331.4,0 1331.4,132 	"/>
</g>
<g id="UNIHELD_xA0_Bild_1_">
	<g>
		<path class="st1" d="M256.2,221.2c0,12.3-1.9,23.6-5.5,33.9c-3.7,10.3-9.2,19.3-16.5,26.9c-7.3,7.6-16.4,13.5-27.3,17.8
			c-10.9,4.3-23.4,6.4-37.6,6.4c-14.4,0-27-2.1-37.9-6.4c-10.9-4.3-20-10.2-27.3-17.8c-7.3-7.6-12.8-16.6-16.5-26.9
			c-3.7-10.3-5.5-21.6-5.5-33.9V94.1h45.5v125.4c0,6.4,1,12.4,3.1,17.8c2,5.5,4.9,10.2,8.6,14.2c3.7,4,8.1,7.1,13.3,9.4
			c5.2,2.2,10.7,3.4,16.8,3.4c6,0,11.6-1.1,16.6-3.4c5.1-2.2,9.4-5.4,13.1-9.4c3.7-4,6.6-8.7,8.6-14.2c2-5.5,3.1-11.4,3.1-17.8V94.1
			h45.5V221.2z"/>
		<path class="st1" d="M276.6,94.1h61.9l87.8,143.8h0.6V94.1h45.5V301h-59.5l-90.2-147.3h-0.6V301h-45.5V94.1z"/>
		<path class="st1" d="M489.1,94.1h45.5V301h-45.5V94.1z"/>
		<path class="st1" d="M551.5,94.1H597v77.2h88.4V94.1H731V301h-45.5v-89.4H597V301h-45.5V94.1z"/>
		<path class="st1" d="M751.4,94.1h140.4v42.1h-94.8v38.6h89.6v42.1h-89.6v42.1H897V301H751.4V94.1z"/>
		<path class="st1" d="M911.9,94.1h45.5v164.9h84.3V301H911.9V94.1z"/>
		<path class="st1" d="M1058.1,94.1h68.3c16.5,0,32.2,1.9,47.1,5.6c14.9,3.7,27.9,9.7,39,18c11.1,8.3,19.9,19,26.4,32.3
			c6.5,13.3,9.8,29.3,9.8,48.2c0,16.8-3.2,31.5-9.5,44.3c-6.3,12.8-14.8,23.5-25.5,32.2c-10.7,8.7-23.1,15.2-37.1,19.7
			c-14,4.5-28.7,6.7-44.1,6.7h-74.4V94.1z M1103.6,258.9h23.6c10.5,0,20.3-1.1,29.3-3.2c9-2.1,16.9-5.7,23.5-10.7
			c6.6-5,11.8-11.5,15.6-19.6c3.8-8.1,5.7-18,5.7-29.7c0-10.1-1.9-18.9-5.7-26.5c-3.8-7.5-8.9-13.7-15.3-18.6
			c-6.4-4.9-14-8.5-22.6-11c-8.7-2.4-17.8-3.7-27.3-3.7h-26.8V258.9z"/>
	</g>
</g>
</svg>
