<?xml version="1.0" encoding="utf-8"?>
<!-- Generator: Adobe Illustrator 22.1.0, SVG Export Plug-In . SVG Version: 6.00 Build 0)  -->
<svg version="1.1" id="Icons" xmlns="http://www.w3.org/2000/svg" xmlns:xlink="http://www.w3.org/1999/xlink" x="0px" y="0px"
	 viewBox="0 0 48 48" style="enable-background:new 0 0 48 48;" xml:space="preserve">
<style type="text/css">
	.st0{fill:#656769;}
	.st1{fill:#525252;}
	.st2{fill:none;stroke:#45413C;stroke-width:0.75;stroke-linecap:round;stroke-linejoin:round;}
	.st3{opacity:0.15;fill:#45413C;enable-background:new    ;}
	.st4{fill:#87898C;}
	.st5{fill:none;stroke:#45413C;stroke-linecap:round;stroke-linejoin:round;}
	.st6{fill:#00FF00;stroke:#45413C;stroke-width:0.75;stroke-linecap:round;stroke-linejoin:round;}
	.st7{fill:#00FF00;stroke:#45413C;stroke-linecap:round;stroke-linejoin:round;}
</style>
<title>435-graduation-cap</title>
<g id="_Group_">
	<path id="_Path_" class="st0" d="M36.6,29.6l-4.3,2.7c-5,3.2-11.5,3.2-16.5,0l-4.3-2.7c-1-0.6-1.6-1.7-1.6-2.9v-6h28.3v6
		C38.1,27.9,37.5,29,36.6,29.6z"/>
	<path id="_Path_2" class="st1" d="M38.1,20.7H9.9v4.6l10.7,6.2c2.1,1.3,4.8,1.3,6.9,0l10.7-6.2L38.1,20.7z"/>
	<path id="_Path_3" class="st2" d="M36.6,29.6l-4.3,2.7c-5,3.2-11.5,3.2-16.5,0l-4.3-2.7c-1-0.6-1.6-1.7-1.6-2.9v-6h28.3v6
		C38.1,27.9,37.5,29,36.6,29.6z"/>
	<ellipse id="_Ellipse_" class="st3" cx="24" cy="45.3" rx="13" ry="1.7"/>
	<path id="_Path_4" class="st0" d="M5.7,19.2l14.8,8.7c2.1,1.3,4.8,1.3,6.9,0l14.8-8.7c2-1.1,2.6-3.7,1.5-5.6
		c-0.4-0.7-1-1.2-1.6-1.6l-15-7.9c-2-1.1-4.4-1.1-6.4,0L5.8,12c-2,1.1-2.8,3.5-1.7,5.6C4.5,18.2,5,18.8,5.7,19.2z"/>
	<path class="st4" d="M42.2,12l-15-7.9c-2-1.1-4.4-1.1-6.4,0L5.8,12c-2,1.1-2.8,3.6-1.7,5.6c0,0.1,0.1,0.1,0.1,0.2
		c0.4-0.5,1-0.9,1.6-1.1l15-6c2.1-0.8,4.3-0.8,6.4,0l15,6c0.6,0.2,1.2,0.6,1.6,1.1c1.2-2,0.5-4.5-1.4-5.6C42.3,12.1,42.2,12,42.2,12
		z"/>
	<path id="_Path_5" class="st2" d="M5.7,19.2l14.8,8.7c2.1,1.3,4.8,1.3,6.9,0l14.8-8.7c2-1.1,2.6-3.7,1.5-5.6
		c-0.4-0.7-1-1.2-1.6-1.6l-15-7.9c-2-1.1-4.4-1.1-6.4,0L5.8,12c-2,1.1-2.8,3.5-1.7,5.6C4.5,18.2,5,18.8,5.7,19.2z"/>
	<polyline id="_Path_6" class="st5" points="22.3,16.2 12.3,22.7 12.3,37.1 	"/>
	<path id="_Path_7" class="st6" d="M11.6,39.1l-1.8,5.3c-0.2,0.6,0,1.2,0.5,1.5c0.6,0.4,1.3,0.7,2,0.7c0.7,0,1.4-0.3,2-0.7
		c0.5-0.4,0.7-1,0.5-1.5L13,39.1H11.6z"/>
	<circle id="_Path_8" class="st6" cx="12.3" cy="39.1" r="2.1"/>
	<path id="_Path_9" class="st7" d="M26.7,15.1c0,0.8-1.2,1.4-2.7,1.4s-2.7-0.6-2.7-1.4s1.2-1.4,2.7-1.4S26.7,14.4,26.7,15.1z"/>
</g>
</svg>
