<?xml version="1.0" encoding="utf-8"?>
<!-- Generator: Adobe Illustrator 22.1.0, SVG Export Plug-In . SVG Version: 6.00 Build 0)  -->
<svg version="1.1" id="Ebene_1" xmlns="http://www.w3.org/2000/svg" xmlns:xlink="http://www.w3.org/1999/xlink" x="0px" y="0px"
	 viewBox="0 0 72 72" style="enable-background:new 0 0 72 72;" xml:space="preserve">
<style type="text/css">
	.st0{opacity:0.2;enable-background:new    ;}
	.st1{opacity:0.4;enable-background:new    ;}
	.st2{fill:#4BEA06;stroke:#FFFFFF;stroke-width:0.4589;stroke-miterlimit:10;}
	.st3{fill:#FFFFFF;}
</style>
<g>
	<g id="schatten_1_">
		<ellipse class="st0" cx="35.9" cy="67.8" rx="20.8" ry="2.7"/>
		<ellipse class="st1" cx="36" cy="67.6" rx="10.3" ry="1.8"/>
	</g>
	<g id="icon_x5F_maps_xA0_Bild_2_">
		<g>
			<path class="st2" d="M36,67.8c-0.2-0.5-7.5-12.8-7.8-12.9c-2.2-0.7-4.4-1.6-6.3-2.8c-5.2-3.2-8.9-7.7-11.1-13.4
				c-0.7-2-1.3-4-1.5-6.1C9.1,31.3,9,30,9,28.7c0.2-6.5,2.3-12.2,6.5-17.1c3.4-4,7.7-6.8,12.7-8.3c1.5-0.4,3-0.7,4.5-0.9
				c1.5-0.2,3-0.3,4.6-0.2c4.8,0.2,9.2,1.6,13.3,4.2c4.2,2.7,7.4,6.2,9.6,10.7c1.2,2.3,2,4.8,2.4,7.3c0.2,1.2,0.4,2.4,0.4,3.7
				c0.2,6.9-1.8,13-6.2,18.3c-3.5,4.2-7.8,7.1-13.1,8.7C43.4,55,36.2,67.3,36,67.8C36,67.8,36,67.8,36,67.8z"/>
		</g>
	</g>
	<g id="icons_1_">
		<g>
			<path class="st3" d="M48.6,12.8c-2.7,0-4.9,2-5.3,4.7h-1.7l2.1-7.3h2.2V8.8h-2.7c-0.3,0-0.6,0.2-0.6,0.5l-2.4,8.2h-17
				c-0.4,0-0.7,0.3-0.7,0.7c0,0.2,0,0.3,0.1,0.4l12.5,15.8v13.1h-5.3v1.3h12v-1.3h-5.3V34.3l9.2-11.7c0.8,0.5,1.8,0.8,2.8,0.8
				c2.9,0,5.3-2.4,5.3-5.3C53.9,15.2,51.5,12.8,48.6,12.8L48.6,12.8z M24.7,18.8h15.2l-1.3,4.7H28.4L24.7,18.8z M35.9,33l-6.5-8.2
				h8.7l-1.5,5.1l1.3,0.4l1.6-5.5h3L35.9,33z M43.5,23.4h-3.6l1.4-4.7h6L43.5,23.4z M48.6,22.1c-0.7,0-1.3-0.2-1.9-0.5l2.4-3.1
				c0.2-0.3,0.2-0.7-0.1-0.9c-0.1-0.1-0.3-0.1-0.4-0.1h-3.9c0.4-2.2,2.4-3.6,4.6-3.3c2.2,0.4,3.6,2.4,3.3,4.6
				C52.2,20.7,50.5,22.1,48.6,22.1L48.6,22.1z"/>
		</g>
	</g>
</g>
</svg>
