<?xml version="1.0" encoding="utf-8"?>
<!-- Generator: Adobe Illustrator 22.1.0, SVG Export Plug-In . SVG Version: 6.00 Build 0)  -->
<svg version="1.1" id="Ebene_1" xmlns="http://www.w3.org/2000/svg" xmlns:xlink="http://www.w3.org/1999/xlink" x="0px" y="0px"
	 viewBox="0 0 72 72" style="enable-background:new 0 0 72 72;" xml:space="preserve">
<style type="text/css">
	.st0{opacity:0.2;enable-background:new    ;}
	.st1{opacity:0.4;enable-background:new    ;}
	.st2{fill:#4BEA06;stroke:#FFFFFF;stroke-width:0.4589;stroke-miterlimit:10;}
	.st3{clip-path:url(#SVGID_2_);fill:#FFFFFF;}
	.st4{fill:#FFFFFF;}
</style>
<g>
	<g id="schatten">
		<ellipse class="st0" cx="35.9" cy="67.7" rx="20.8" ry="2.7"/>
		<ellipse class="st1" cx="36" cy="67.4" rx="10.3" ry="1.8"/>
	</g>
	<g id="icon_x5F_maps_xA0_Bild_1_">
		<g>
			<path class="st2" d="M36,67.7c-0.2-0.5-7.5-12.8-7.8-12.9c-2.2-0.7-4.4-1.6-6.3-2.8c-5.2-3.2-8.9-7.7-11.1-13.4
				c-0.7-2-1.3-4-1.5-6.1C9.1,31.1,9,29.8,9,28.6c0.2-6.5,2.3-12.2,6.5-17.1c3.4-4,7.7-6.8,12.7-8.3c1.5-0.4,3-0.7,4.5-0.9
				c1.5-0.2,3-0.3,4.6-0.2c4.8,0.2,9.2,1.6,13.3,4.2c4.2,2.7,7.4,6.2,9.6,10.7c1.2,2.3,2,4.8,2.4,7.3c0.2,1.2,0.4,2.4,0.4,3.7
				c0.2,6.9-1.8,13-6.2,18.3c-3.5,4.2-7.8,7.1-13.1,8.7C43.4,54.9,36.2,67.1,36,67.7C36,67.7,36,67.7,36,67.7z"/>
		</g>
	</g>
	<g id="icons">
		<g>
			<g>
				<g>
					<defs>
						<rect id="SVGID_1_" x="24.1" y="10.5" width="24.2" height="38.1"/>
					</defs>
					<clipPath id="SVGID_2_">
						<use xlink:href="#SVGID_1_"  style="overflow:visible;"/>
					</clipPath>
					<path class="st3" d="M47.6,13.1h-1.3v-1.9c0-0.4-0.3-0.6-0.6-0.6h-19c-0.4,0-0.6,0.3-0.6,0.6v1.9h-1.3c-0.4,0-0.6,0.3-0.6,0.6
						v3.8c0,0.4,0.3,0.6,0.6,0.6h1.3L28.6,48c0,0.3,0.3,0.6,0.6,0.6h14c0.3,0,0.6-0.3,0.6-0.6l2.5-29.9h1.3c0.4,0,0.6-0.3,0.6-0.6
						v-3.8C48.2,13.3,47.9,13.1,47.6,13.1L47.6,13.1z M27.3,11.8H45v1.3H27.3V11.8z M42.6,47.3H29.8l-0.5-5.7H43L42.6,47.3z
						 M43.1,40.3h-14l-1.3-15.2h16.5L43.1,40.3z M44.5,23.8H27.8l-0.5-5.7H45L44.5,23.8z M47,16.9H25.4v-2.5H47V16.9z"/>
				</g>
			</g>
			<path class="st4" d="M36.2,27.6c-2.8,0-5.1,2.3-5.1,5.1s2.3,5.1,5.1,5.1s5.1-2.3,5.1-5.1S39,27.6,36.2,27.6L36.2,27.6z
				 M36.2,36.5c-2.1,0-3.8-1.7-3.8-3.8s1.7-3.8,3.8-3.8c2.1,0,3.8,1.7,3.8,3.8S38.3,36.5,36.2,36.5L36.2,36.5z"/>
			<path class="st4" d="M43.1,19.4h-1.3c-0.4,0-0.6,0.3-0.6,0.6c0,0.4,0.3,0.6,0.6,0.6h1.3c0.4,0,0.6-0.3,0.6-0.6
				C43.8,19.7,43.5,19.4,43.1,19.4L43.1,19.4z"/>
			<path class="st4" d="M39.3,19.4H29.2c-0.4,0-0.6,0.3-0.6,0.6c0,0.4,0.3,0.6,0.6,0.6h10.2c0.4,0,0.6-0.3,0.6-0.6
				C40,19.7,39.7,19.4,39.3,19.4L39.3,19.4z"/>
		</g>
	</g>
</g>
</svg>
