<?xml version="1.0" encoding="utf-8"?>
<!-- Generator: Adobe Illustrator 22.1.0, SVG Export Plug-In . SVG Version: 6.00 Build 0)  -->
<svg version="1.1" id="Ebene_1" xmlns="http://www.w3.org/2000/svg" xmlns:xlink="http://www.w3.org/1999/xlink" x="0px" y="0px"
	 viewBox="0 0 72 72" style="enable-background:new 0 0 72 72;" xml:space="preserve">
<style type="text/css">
	.st0{opacity:0.2;enable-background:new    ;}
	.st1{opacity:0.4;enable-background:new    ;}
	.st2{fill:#4BEA06;stroke:#FFFFFF;stroke-width:0.4589;stroke-miterlimit:10;}
	.st3{fill:#FFFFFF;}
</style>
<g>
	<g id="schatten_1_">
		<ellipse class="st0" cx="35.9" cy="67.7" rx="20.8" ry="2.7"/>
		<ellipse class="st1" cx="36" cy="67.4" rx="10.3" ry="1.8"/>
	</g>
	<g id="icon_x5F_maps_xA0_Bild_2_">
		<g>
			<path class="st2" d="M36,67.7c-0.2-0.5-7.5-12.8-7.8-12.9c-2.2-0.7-4.4-1.6-6.3-2.8c-5.2-3.2-8.9-7.7-11.1-13.4
				c-0.7-2-1.3-4-1.5-6.1C9.1,31.1,9,29.8,9,28.6c0.2-6.5,2.3-12.2,6.5-17.1c3.4-4,7.7-6.8,12.7-8.3c1.5-0.4,3-0.7,4.5-0.9
				c1.5-0.2,3-0.3,4.6-0.2c4.8,0.2,9.2,1.6,13.3,4.2c4.2,2.7,7.4,6.2,9.6,10.7c1.2,2.3,2,4.8,2.4,7.3c0.2,1.2,0.4,2.4,0.4,3.7
				c0.2,6.9-1.8,13-6.2,18.3c-3.5,4.2-7.8,7.1-13.1,8.7C43.4,54.9,36.2,67.1,36,67.7C36,67.7,36,67.7,36,67.7z"/>
		</g>
	</g>
	<g id="icons_1_">
		<g>
			<path class="st3" d="M49.3,8.4H22.8c-0.3,0-0.6,0.3-0.6,0.6c0,0.3,0.3,0.6,0.6,0.6H25v1.6c0,0.3,0.3,0.6,0.6,0.6h2.9
				c0.3,0,0.6-0.3,0.6-0.6c0-0.3-0.3-0.6-0.6-0.6h-2.3v-1h19.8v1H31.2c-0.3,0-0.6,0.3-0.6,0.6c0,0.3,0.3,0.6,0.6,0.6h2.8v3.2
				c0,0.3,0.3,0.6,0.6,0.6h0.8v4.8c-7,0.3-12.5,6.1-12.5,13.1c0,7.2,5.9,13.1,13.1,13.1c7.2,0,13.1-5.9,13.1-13.1
				c0-1.1-0.1-2.1-0.4-3.1c-0.1-0.3-0.4-0.5-0.7-0.4c-0.3,0.1-0.5,0.4-0.4,0.7c0.2,0.7,0.3,1.5,0.3,2.2h-4.2c0-2-0.3-4-0.7-5.8h3.1
				c0.2,0.4,0.5,0.8,0.7,1.2c0.1,0.3,0.5,0.4,0.8,0.3c0.3-0.1,0.4-0.5,0.3-0.8c-1.1-2.2-2.7-4.1-4.8-5.4c-1.9-1.3-4.2-2-6.5-2.1
				v-4.8h0.8c0.3,0,0.6-0.3,0.6-0.6v-3.3h8.5c0.3,0,0.6-0.3,0.6-0.6V9.5h2.1c0.3,0,0.6-0.3,0.6-0.6C49.9,8.6,49.6,8.4,49.3,8.4
				L49.3,8.4z M30.5,22.8c-0.5,0.9-0.9,1.9-1.2,3h-2.5C27.8,24.6,29.1,23.6,30.5,22.8L30.5,22.8z M26,27.1H29
				c-0.4,1.8-0.7,3.8-0.7,5.8h-4.2C24.2,30.7,24.9,28.7,26,27.1L26,27.1z M26.8,41h2.5c0.3,1.1,0.7,2.1,1.2,3
				C29.1,43.3,27.8,42.3,26.8,41L26.8,41z M35.5,45.4c-1.1,0-2.1-0.2-3.1-0.6c-0.7-1-1.3-2.3-1.8-3.8h4.9L35.5,45.4L35.5,45.4z
				 M35.5,39.8h-5.2c-0.2-0.6-0.3-1.2-0.4-1.8c-0.1-0.3-0.4-0.5-0.7-0.5c-0.3,0.1-0.5,0.4-0.5,0.7c0.1,0.6,0.2,1.1,0.3,1.7H26
				c-1.1-1.7-1.7-3.7-1.8-5.8h4.2c0,0.4,0,0.9,0,1.3c0,0.3,0.3,0.6,0.6,0.6c0,0,0,0,0,0c0.3,0,0.6-0.3,0.6-0.6c0-0.4,0-0.8,0-1.2h6
				V39.8z M35.5,32.9h-6c0-2,0.3-4,0.7-5.8h5.2V32.9z M35.5,25.9h-4.9c0.5-1.5,1.1-2.8,1.8-3.8c1-0.3,2-0.5,3.1-0.6L35.5,25.9
				L35.5,25.9z M39.7,44.8c-1,0.3-2,0.5-3.1,0.6V41h4.9C41,42.5,40.5,43.8,39.7,44.8L39.7,44.8z M42.6,34c0,2-0.3,4-0.7,5.8h-5.2V34
				H42.6z M36.6,32.9v-5.8h5.2c0.4,1.8,0.7,3.7,0.7,5.8H36.6z M41.6,44c0.5-0.9,0.9-1.9,1.2-3h2.5C44.3,42.3,43,43.3,41.6,44
				L41.6,44z M43.8,34H48c-0.1,2.1-0.8,4.1-1.8,5.8h-3.1C43.5,38,43.7,36.1,43.8,34L43.8,34z M45.3,25.9h-2.5
				c-0.3-1.1-0.7-2.1-1.2-3C43,23.6,44.3,24.6,45.3,25.9L45.3,25.9z M39.7,22.1c0.7,1,1.3,2.3,1.8,3.8h-4.9v-4.4
				C37.7,21.6,38.7,21.8,39.7,22.1L39.7,22.1z M36.8,14.4h-1.6v-2.7h1.6V14.4z"/>
			<path class="st3" d="M53.7,27.1h-1.9c-0.3,0-0.6,0.3-0.6,0.6c0,0.3,0.3,0.6,0.6,0.6h1.9c0.3,0,0.6-0.3,0.6-0.6
				C54.3,27.4,54,27.1,53.7,27.1L53.7,27.1z"/>
			<path class="st3" d="M53.7,38.6h-1.9c-0.3,0-0.6,0.3-0.6,0.6c0,0.3,0.3,0.6,0.6,0.6h1.9c0.3,0,0.6-0.3,0.6-0.6
				C54.3,38.9,54,38.6,53.7,38.6L53.7,38.6z"/>
			<path class="st3" d="M47.2,18.3c-0.2-0.2-0.6-0.2-0.8,0L44.6,20c-0.2,0.2-0.2,0.6,0,0.8c0.1,0.1,0.3,0.2,0.4,0.2
				c0.2,0,0.3-0.1,0.4-0.2l1.7-1.7C47.4,18.9,47.4,18.5,47.2,18.3L47.2,18.3z"/>
			<path class="st3" d="M47.2,47.8L45.5,46c-0.2-0.2-0.6-0.2-0.8,0s-0.2,0.6,0,0.8l1.7,1.7c0.1,0.1,0.3,0.2,0.4,0.2
				c0.2,0,0.3-0.1,0.4-0.2C47.4,48.4,47.4,48,47.2,47.8L47.2,47.8z"/>
			<path class="st3" d="M20.3,27.1h-1.9c-0.3,0-0.6,0.3-0.6,0.6c0,0.3,0.3,0.6,0.6,0.6h1.9c0.3,0,0.6-0.3,0.6-0.6
				C20.9,27.4,20.6,27.1,20.3,27.1L20.3,27.1z"/>
			<path class="st3" d="M20.3,38.6h-1.9c-0.3,0-0.6,0.3-0.6,0.6c0,0.3,0.3,0.6,0.6,0.6h1.9c0.3,0,0.6-0.3,0.6-0.6
				C20.9,38.9,20.6,38.6,20.3,38.6L20.3,38.6z"/>
			<path class="st3" d="M27.5,20l-1.7-1.7c-0.2-0.2-0.6-0.2-0.8,0c-0.2,0.2-0.2,0.6,0,0.8l1.7,1.7C26.7,21,26.9,21,27,21
				s0.3-0.1,0.4-0.2C27.7,20.6,27.7,20.2,27.5,20L27.5,20z"/>
			<path class="st3" d="M27.5,46c-0.2-0.2-0.6-0.2-0.8,0l-1.7,1.7c-0.2,0.2-0.2,0.6,0,0.8c0.1,0.1,0.3,0.2,0.4,0.2s0.3-0.1,0.4-0.2
				l1.7-1.7C27.7,46.6,27.7,46.3,27.5,46L27.5,46z"/>
		</g>
	</g>
</g>
</svg>
