<?xml version="1.0" encoding="utf-8"?>
<!-- Generator: Adobe Illustrator 22.1.0, SVG Export Plug-In . SVG Version: 6.00 Build 0)  -->
<svg version="1.1" id="Ebene_1" xmlns="http://www.w3.org/2000/svg" xmlns:xlink="http://www.w3.org/1999/xlink" x="0px" y="0px"
	 viewBox="0 0 72 72" style="enable-background:new 0 0 72 72;" xml:space="preserve">
<style type="text/css">
	.st0{opacity:0.2;fill:url(#SVGID_1_);enable-background:new    ;}
	.st1{opacity:0.4;fill:url(#SVGID_2_);enable-background:new    ;}
	.st2{fill:url(#SVGID_3_);stroke:#FFFFFF;stroke-width:0.4589;stroke-miterlimit:10;}
	.st3{fill:#39C723;}
	.st4{fill:#FFFFFF;}
</style>
<g>
	<g>
		<g id="schatten_1_">
			<linearGradient id="SVGID_1_" gradientUnits="userSpaceOnUse" x1="25.4116" y1="78.2884" x2="46.3884" y2="57.3116">
				<stop  offset="1" style="stop-color:#000000"/>
				<stop  offset="1" style="stop-color:#00FF00"/>
			</linearGradient>
			<ellipse class="st0" cx="35.9" cy="67.8" rx="20.8" ry="2.7"/>
			<linearGradient id="SVGID_2_" gradientUnits="userSpaceOnUse" x1="30.7711" y1="72.8289" x2="41.2289" y2="62.3711">
				<stop  offset="1" style="stop-color:#000000"/>
				<stop  offset="1" style="stop-color:#00FF00"/>
			</linearGradient>
			<ellipse class="st1" cx="36" cy="67.6" rx="10.3" ry="1.8"/>
		</g>
		<g id="icon_x5F_maps_xA0_Bild_2_">
			<g>
				<linearGradient id="SVGID_3_" gradientUnits="userSpaceOnUse" x1="16.7928" y1="48.5928" x2="55.2545" y2="10.1311">
					<stop  offset="0.4903" style="stop-color:#000000"/>
					<stop  offset="0.4962" style="stop-color:#00FF00"/>
				</linearGradient>
				<path class="st2" d="M36,67.8c-0.2-0.5-7.5-12.8-7.8-12.9c-2.2-0.7-4.4-1.6-6.3-2.8c-5.2-3.2-8.9-7.7-11.1-13.4
					c-0.7-2-1.3-4-1.5-6.1C9.1,31.3,9,30,9,28.7c0.2-6.5,2.3-12.2,6.5-17.1c3.4-4,7.7-6.8,12.7-8.3c1.5-0.4,3-0.7,4.5-0.9
					s3-0.3,4.6-0.2c4.8,0.2,9.2,1.6,13.3,4.2c4.2,2.7,7.4,6.2,9.6,10.7c1.2,2.3,2,4.8,2.4,7.3c0.2,1.2,0.4,2.4,0.4,3.7
					c0.2,6.9-1.8,13-6.2,18.3c-3.5,4.2-7.8,7.1-13.1,8.7C43.4,55,36.2,67.3,36,67.8L36,67.8z"/>
			</g>
		</g>
	</g>
</g>
<g>
	<path class="st3" d="M45.7,47.6l-2-7.9l-0.8-0.2l-5.6,6l0,0c0,0,0-0.1,0-0.1c-0.3,1.1,1.4,2.4,3.7,3C43.4,49,45.5,48.7,45.7,47.6
		C45.7,47.6,45.7,47.6,45.7,47.6L45.7,47.6z"/>
	<g>
		<path class="st3" d="M49.4,29.3l-26.1-6.8l-2.8,10.9l0,0c0,0,0,0.1,0,0.1c-0.7,2.6,2.8,5.8,8.2,7.9c1.1,0.4,2.7,0.8,3.4,1
			c0.8,0.2,2.3,0.6,3.5,0.8c5.7,0.8,10.4-0.3,11-2.9c0,0,0-0.1,0-0.1l0,0L49.4,29.3z"/>
	</g>
	<g>
		<path class="st4" d="M49.2,27.7l-24.7-6.4l-2.8,10.9l0,0c0,0,0,0.1,0,0.1C21,34.8,24.2,38,29.3,40c1,0.4,2.5,0.8,3.2,1
			c0.7,0.2,2.2,0.6,3.3,0.7c5.4,0.7,9.8-0.5,10.5-3.1c0,0,0-0.1,0-0.1l0,0L49.2,27.7z"/>
	</g>
	<g id="XMLID_1_">
		<g>
			<path class="st3" d="M57.4,29c-0.1,0.3-0.1,0.8-0.5,0.8L35.5,33c-0.6,0.1-1.3-0.1-1.8-0.5L16.7,19.4c-0.3-0.3-0.1-0.8,0-1
				l21.5-2.3c0.6-0.1,1.2,0.1,1.6,0.4L57.4,29z"/>
		</g>
	</g>
	<g id="XMLID_2_">
		<g>
			<path class="st4" d="M57.3,28.1c0.3,0.2,0.2,0.8-0.2,0.8l-21.3,3.1c-0.6,0.1-1.3-0.1-1.8-0.5L16.9,18.5c-0.3-0.3-0.2-0.8,0.2-0.8
				l21.2-2.5c0.6-0.1,1.2,0.1,1.6,0.4L57.3,28.1z"/>
		</g>
	</g>
	<path class="st4" d="M44.4,46.5l-1.1-5.5l-0.5-0.1l-3.7,4.3l0,0c0,0,0-0.1,0,0c-0.2,0.8,0.8,1.7,2.3,2.1
		C42.9,47.5,44.3,47.2,44.4,46.5C44.5,46.4,44.4,46.5,44.4,46.5L44.4,46.5z"/>
	<g>
		<path class="st3" d="M43.8,39.7L46,31c0-0.2,0-0.3-0.2-0.4l-8.7-6.5c-0.2-0.1-0.4-0.1-0.6,0.1c-0.1,0.2-0.1,0.4,0.1,0.6l8.4,6.3
			L43,39.5c-0.7,0-1.2,0.5-1.4,1.1c-0.2,0.8,0.3,1.6,1.1,1.8c0.8,0.2,1.6-0.3,1.8-1.1C44.6,40.7,44.3,40,43.8,39.7z"/>
	</g>
	<path class="st3" d="M45.2,41.5c-0.3,1.2-1.5,1.9-2.7,1.6c-1.2-0.3-1.9-1.5-1.6-2.7c0.3-1.2,1.5-1.9,2.7-1.6
		C44.8,39.1,45.5,40.4,45.2,41.5z"/>
</g>
</svg>
