<?xml version="1.0" encoding="utf-8"?>
<!-- Generator: Adobe Illustrator 22.1.0, SVG Export Plug-In . SVG Version: 6.00 Build 0)  -->
<svg version="1.1" id="Ebene_1" xmlns="http://www.w3.org/2000/svg" xmlns:xlink="http://www.w3.org/1999/xlink" x="0px" y="0px"
	 viewBox="0 0 72 72" style="enable-background:new 0 0 72 72;" xml:space="preserve">
<style type="text/css">
	.st0{opacity:0.2;enable-background:new    ;}
	.st1{opacity:0.4;enable-background:new    ;}
	.st2{fill:#4BEA06;stroke:#FFFFFF;stroke-width:0.4589;stroke-miterlimit:10;}
	.st3{fill-rule:evenodd;clip-rule:evenodd;fill:#295396;}
	.st4{fill-rule:evenodd;clip-rule:evenodd;fill:#FFFFFF;}
</style>
<g id="schatten_1_">
	<ellipse class="st0" cx="35.9" cy="67.8" rx="20.8" ry="2.7"/>
	<ellipse class="st1" cx="36" cy="67.6" rx="10.3" ry="1.8"/>
</g>
<g id="icon_x5F_maps_xA0_Bild_2_">
	<g>
		<path class="st2" d="M36,67.8c-0.2-0.5-7.5-12.8-7.8-12.9c-2.2-0.7-4.4-1.6-6.3-2.8c-5.2-3.2-8.9-7.7-11.1-13.4
			c-0.7-2-1.3-4-1.5-6.1C9.1,31.3,9,30,9,28.7c0.2-6.5,2.3-12.2,6.5-17.1c3.4-4,7.7-6.8,12.7-8.3c1.5-0.4,3-0.7,4.5-0.9
			c1.5-0.2,3-0.3,4.6-0.2c4.8,0.2,9.2,1.6,13.3,4.2c4.2,2.7,7.4,6.2,9.6,10.7c1.2,2.3,2,4.8,2.4,7.3c0.2,1.2,0.4,2.4,0.4,3.7
			c0.2,6.9-1.8,13-6.2,18.3c-3.5,4.2-7.8,7.1-13.1,8.7C43.4,55,36.2,67.3,36,67.8C36,67.8,36,67.8,36,67.8z"/>
	</g>
</g>
<g>
	
		<ellipse id="XMLID_2_" transform="matrix(0.1026 -0.9947 0.9947 0.1026 3.0283 62.2208)" class="st3" cx="36" cy="29.4" rx="21.8" ry="21.8"/>
	<path id="XMLID_1_" class="st4" d="M32.6,36c0-2,0-4.1,0-6.1c0-0.3-0.1-0.5-0.4-0.4c-0.6,0-1.3,0-1.9,0c-0.3,0-0.4-0.1-0.3-0.3
		c0-1.3,0-2.5,0-3.8c0-0.2,0.1-0.3,0.3-0.3c0.6,0,1.3,0,1.9,0c0.4,0,0.5-0.1,0.4-0.5c0-1,0-1.9,0-2.9c0-1.2,0.3-2.3,1-3.2
		c0.9-1.2,2.2-1.8,3.6-1.8c1.5-0.1,3,0,4.5,0c0.2,0,0.3,0.1,0.3,0.3c0,1.3,0,2.6,0,3.9c0,0.2-0.1,0.3-0.3,0.3c-0.7,0-1.4,0-2.2,0
		c-1,0-1.5,0.5-1.6,1.4c0,0.8,0,1.5,0,2.3c0,0.3,0.2,0.3,0.3,0.3c1.1,0,2.2,0,3.3,0c0.3,0,0.4,0.1,0.4,0.4c-0.1,1.3-0.3,2.6-0.4,3.8
		c0,0.3-0.2,0.3-0.4,0.3c-0.9,0-1.7,0-2.6,0c-0.6,0-0.6-0.1-0.6,0.5c0,4,0,8,0,12c0,0.4-0.1,0.5-0.5,0.5c-1.5,0-3,0-4.5,0
		c-0.4,0-0.5-0.1-0.5-0.5C32.6,40,32.6,38,32.6,36z"/>
</g>
</svg>
