<?xml version="1.0" encoding="utf-8"?>
<!-- Generator: Adobe Illustrator 22.1.0, SVG Export Plug-In . SVG Version: 6.00 Build 0)  -->
<svg version="1.1" id="Ebene_1" xmlns="http://www.w3.org/2000/svg" xmlns:xlink="http://www.w3.org/1999/xlink" x="0px" y="0px"
	 viewBox="0 0 72 72" style="enable-background:new 0 0 72 72;" xml:space="preserve">
<style type="text/css">
	.st0{opacity:0.2;enable-background:new    ;}
	.st1{opacity:0.4;enable-background:new    ;}
	.st2{fill:#4BEA06;stroke:#FFFFFF;stroke-width:0.4589;stroke-miterlimit:10;}
	.st3{clip-path:url(#SVGID_2_);fill:#FFFFFF;}
	.st4{fill:#FFFFFF;}
</style>
<g>
	<g>
		<g id="schatten_1_">
			<ellipse class="st0" cx="35.9" cy="67.8" rx="20.8" ry="2.7"/>
			<ellipse class="st1" cx="36" cy="67.6" rx="10.3" ry="1.8"/>
		</g>
		<g id="icon_x5F_maps_xA0_Bild_2_">
			<g>
				<path class="st2" d="M36,67.8c-0.2-0.5-7.5-12.8-7.8-12.9c-2.2-0.7-4.4-1.6-6.3-2.8c-5.2-3.2-8.9-7.7-11.1-13.4
					c-0.7-2-1.3-4-1.5-6.1C9.1,31.3,9,30,9,28.7c0.2-6.5,2.3-12.2,6.5-17.1c3.4-4,7.7-6.8,12.7-8.3c1.5-0.4,3-0.7,4.5-0.9
					s3-0.3,4.6-0.2c4.8,0.2,9.2,1.6,13.3,4.2c4.2,2.7,7.4,6.2,9.6,10.7c1.2,2.3,2,4.8,2.4,7.3c0.2,1.2,0.4,2.4,0.4,3.7
					c0.2,6.9-1.8,13-6.2,18.3c-3.5,4.2-7.8,7.1-13.1,8.7C43.4,55,36.2,67.3,36,67.8L36,67.8z"/>
			</g>
		</g>
	</g>
</g>
<g>
	<g>
		<defs>
			<rect id="SVGID_1_" x="20" y="8" width="29.3" height="40.5"/>
		</defs>
		<clipPath id="SVGID_2_">
			<use xlink:href="#SVGID_1_"  style="overflow:visible;"/>
		</clipPath>
		<path class="st3" d="M31.8,29h-4.3V9.5h2.7c0.3,2.2,2.2,3.8,4.5,3.8c2.3,0,4.2-1.7,4.5-3.8h2.7v10.9c0,0.4,0.3,0.7,0.7,0.7
			c0.4,0,0.7-0.3,0.7-0.7v-1.9l1.5,0.8c0.1,0.1,0.2,0.1,0.3,0.1c0.2,0,0.4-0.1,0.6-0.3l3.4-4.8c0.2-0.3,0.2-0.7-0.1-1l-6-5
			c-0.1-0.1-0.3-0.2-0.5-0.2H26.7c-0.2,0-0.3,0.1-0.5,0.2l-6,5c-0.3,0.2-0.3,0.7-0.1,1l3.4,4.8c0.1,0.2,0.4,0.3,0.6,0.3
			c0.1,0,0.2,0,0.3-0.1l1.5-0.8v11.3c0,0.4,0.3,0.7,0.7,0.7h5.1c0.4,0,0.7-0.3,0.7-0.7C32.5,29.4,32.1,29,31.8,29L31.8,29z
			 M44.8,17.7l-1.6-0.8v-6.6l4.3,3.6L44.8,17.7z M34.6,11.9c-1.5,0-2.7-1-3-2.4h6.1C37.3,10.9,36.1,11.9,34.6,11.9L34.6,11.9z
			 M24.4,17.7l-2.7-3.8l4.3-3.6v6.6L24.4,17.7z M24.4,17.7"/>
	</g>
	<path class="st4" d="M48.3,21.9H34c-0.4,0-0.7,0.3-0.7,0.7v25c0,0.4,0.3,0.7,0.7,0.7h5.5c0.4,0,0.7-0.3,0.7-0.7l1-17.3l1,17.3
		c0,0.4,0.3,0.7,0.7,0.7h5.5c0.4,0,0.7-0.3,0.7-0.7v-25C49,22.2,48.7,21.9,48.3,21.9L48.3,21.9z M47.6,24.9h-2.2v-1.6h2.2V24.9z
		 M38.4,24.9v-1.6H44v1.6H38.4z M37,23.3v1.6h-2.2v-1.6H37z M43.5,46.9l-1-17.4c0-0.4-0.3-0.7-0.7-0.7h-1.3c-0.4,0-0.7,0.3-0.7,0.7
		l-1,17.4h-4.1V26.3h12.9v20.6H43.5z M43.5,46.9"/>
</g>
</svg>
