<?xml version="1.0" encoding="utf-8"?>
<!-- Generator: Adobe Illustrator 22.1.0, SVG Export Plug-In . SVG Version: 6.00 Build 0)  -->
<svg version="1.1" id="Ebene_1" xmlns="http://www.w3.org/2000/svg" xmlns:xlink="http://www.w3.org/1999/xlink" x="0px" y="0px"
	 viewBox="0 0 72 72" style="enable-background:new 0 0 72 72;" xml:space="preserve">
<style type="text/css">
	.st0{opacity:0.2;enable-background:new    ;}
	.st1{opacity:0.4;enable-background:new    ;}
	.st2{fill:#4BEA06;stroke:#FFFFFF;stroke-width:0.4589;stroke-miterlimit:10;}
	.st3{fill:#FFFFFF;}
	.st4{clip-path:url(#SVGID_2_);fill:#FFFFFF;}
	.st5{clip-path:url(#SVGID_4_);fill:#FFFFFF;}
</style>
<g>
	<g id="schatten_1_">
		<ellipse class="st0" cx="35.9" cy="67.7" rx="20.8" ry="2.7"/>
		<ellipse class="st1" cx="36" cy="67.5" rx="10.3" ry="1.8"/>
	</g>
	<g id="icon_x5F_maps_xA0_Bild_2_">
		<g>
			<path class="st2" d="M36,67.8c-0.2-0.5-7.5-12.8-7.8-12.9c-2.2-0.7-4.4-1.6-6.3-2.8c-5.2-3.2-8.9-7.7-11.1-13.4
				c-0.7-2-1.3-4-1.5-6.1C9.1,31.2,9,29.9,9,28.6c0.2-6.5,2.3-12.2,6.5-17.1c3.4-4,7.7-6.8,12.7-8.3c1.5-0.4,3-0.7,4.5-0.9
				C34.2,2,35.7,2,37.2,2c4.8,0.2,9.2,1.6,13.3,4.2c4.2,2.7,7.4,6.2,9.6,10.7c1.2,2.3,2,4.8,2.4,7.3c0.2,1.2,0.4,2.4,0.4,3.7
				c0.2,6.9-1.8,13-6.2,18.3c-3.5,4.2-7.8,7.1-13.1,8.7C43.4,55,36.2,67.2,36,67.8C36,67.8,36,67.8,36,67.8z"/>
		</g>
	</g>
	<g id="icons_1_">
		<g>
			<path class="st3" d="M47.1,25.1c-0.2-0.5-0.7-0.7-1.2-0.5c-0.5,0.2-0.7,0.7-0.5,1.2c0.5,1.1,0.7,2.4,0.7,3.6
				c0,5.4-4.4,9.8-9.8,9.8c-5.4,0-9.8-4.4-9.8-9.8c0-5.4,4.4-9.8,9.8-9.8c1.3,0,2.5,0.2,3.6,0.7c0.5,0.2,1,0,1.2-0.5
				c0.2-0.5,0-1-0.5-1.2c-1.4-0.5-2.8-0.8-4.3-0.8c-6.4,0-11.6,5.2-11.6,11.6S29.9,41,36.3,41s11.6-5.2,11.6-11.6
				C47.9,27.9,47.7,26.5,47.1,25.1L47.1,25.1z"/>
			<path class="st3" d="M52.6,24.7c-0.1-0.5-0.6-0.7-1.1-0.6c-0.5,0.1-0.7,0.6-0.6,1.1c0.4,1.4,0.6,2.8,0.6,4.2
				c0,8.4-6.8,15.2-15.2,15.2c-8.4,0-15.2-6.8-15.2-15.2c0-8.4,6.8-15.2,15.2-15.2c1.4,0,2.8,0.2,4.2,0.6c0.5,0.1,1-0.1,1.1-0.6
				c0.1-0.5-0.1-1-0.6-1.1c-1.5-0.4-3.1-0.7-4.7-0.7c-9.4,0-17,7.6-17,17s7.6,17,17,17s17-7.6,17-17C53.3,27.8,53.1,26.2,52.6,24.7
				L52.6,24.7z"/>
			<g>
				<g>
					<defs>
						<rect id="SVGID_1_" x="19.3" y="8.4" width="38" height="38.1"/>
					</defs>
					<clipPath id="SVGID_2_">
						<use xlink:href="#SVGID_1_"  style="overflow:visible;"/>
					</clipPath>
					<path class="st4" d="M42.5,28.8c0-0.5-0.5-0.9-1-0.8c-0.5,0-0.9,0.5-0.8,1c0,0.1,0,0.3,0,0.4c0,2.5-2,4.5-4.5,4.5
						c-2.5,0-4.5-2-4.5-4.5s2-4.5,4.5-4.5c0.1,0,0.3,0,0.4,0c0.5,0,0.9-0.3,1-0.8c0-0.5-0.3-0.9-0.8-1c-0.2,0-0.4,0-0.6,0
						c-3.5,0-6.3,2.8-6.3,6.3c0,3.5,2.8,6.3,6.3,6.3c3.5,0,6.3-2.8,6.3-6.3C42.6,29.2,42.6,29,42.5,28.8L42.5,28.8z"/>
				</g>
				<g>
					<defs>
						<rect id="SVGID_3_" x="19.3" y="8.4" width="38" height="38.1"/>
					</defs>
					<clipPath id="SVGID_4_">
						<use xlink:href="#SVGID_3_"  style="overflow:visible;"/>
					</clipPath>
					<path class="st5" d="M57.1,14.4c-0.3-0.7-0.9-1.1-1.7-1.1h-3.1v-3.1c0-0.7-0.4-1.4-1.1-1.7c-0.7-0.3-1.4-0.1-2,0.4l-5.2,5.2
						c-0.5,0.5-0.8,1.2-0.8,1.9v5.1L36,28.4c-0.4,0.4-0.4,0.9,0,1.3c0.2,0.2,0.4,0.3,0.6,0.3c0.2,0,0.5-0.1,0.6-0.3l7.3-7.3h5.1
						c0.7,0,1.4-0.3,1.9-0.8l5.2-5.2C57.3,15.9,57.4,15.1,57.1,14.4L57.1,14.4z M45.1,16.1c0-0.2,0.1-0.5,0.3-0.6l5.2-5.2v3.6
						l-5.5,5.5L45.1,16.1L45.1,16.1z M50.3,20.3c-0.2,0.2-0.4,0.3-0.6,0.3h-3.3l5.5-5.5h3.6L50.3,20.3z"/>
				</g>
			</g>
		</g>
	</g>
</g>
</svg>
