<?xml version="1.0" encoding="utf-8"?>
<!-- Generator: Adobe Illustrator 22.1.0, SVG Export Plug-In . SVG Version: 6.00 Build 0)  -->
<svg version="1.1" id="Ebene_1" xmlns="http://www.w3.org/2000/svg" xmlns:xlink="http://www.w3.org/1999/xlink" x="0px" y="0px"
	 viewBox="0 0 72 72" style="enable-background:new 0 0 72 72;" xml:space="preserve">
<style type="text/css">
	.st0{opacity:0.2;enable-background:new    ;}
	.st1{opacity:0.4;enable-background:new    ;}
	.st2{fill:#4BEA06;stroke:#FFFFFF;stroke-width:0.4589;stroke-miterlimit:10;}
	.st3{fill:#FFFFFF;}
</style>
<g>
	<g id="schatten">
		<ellipse class="st0" cx="35.9" cy="67.6" rx="20.8" ry="2.7"/>
		<ellipse class="st1" cx="36" cy="67.4" rx="10.3" ry="1.8"/>
	</g>
	<g id="icon_x5F_maps_xA0_Bild_1_">
		<g>
			<path class="st2" d="M36,67.6c-0.2-0.5-7.5-12.8-7.8-12.9c-2.2-0.7-4.4-1.6-6.3-2.8c-5.2-3.2-8.9-7.7-11.1-13.4
				c-0.7-2-1.3-4-1.5-6.1C9.1,31.1,9,29.8,9,28.5c0.2-6.5,2.3-12.2,6.5-17.1c3.4-4,7.7-6.8,12.7-8.3c1.5-0.4,3-0.7,4.5-0.9
				c1.5-0.2,3-0.3,4.6-0.2c4.8,0.2,9.2,1.6,13.3,4.2c4.2,2.7,7.4,6.2,9.6,10.7c1.2,2.3,2,4.8,2.4,7.3c0.2,1.2,0.4,2.4,0.4,3.7
				c0.2,6.9-1.8,13-6.2,18.3c-3.5,4.2-7.8,7.1-13.1,8.7C43.4,54.8,36.2,67.1,36,67.6C36,67.6,36,67.6,36,67.6z"/>
		</g>
	</g>
	<g id="icons">
		<g>
			<path class="st3" d="M47.9,38.1L25.3,15.5c-0.2-0.2-0.4-0.2-0.6-0.2c-0.2,0-0.4,0.1-0.6,0.3c0,0-1,1.3-1.1,3.4
				c-0.1,2.7,1.3,5.5,4.1,8.4l5.7,5.7c0.5,0.5,1.1,0.7,1.8,0.7c0.7,0,1.3-0.3,1.8-0.7c0,0,0.1,0,0.1,0s0.1,0,0.1,0l0.9,0.9
				c0,0,0,0.1,0,0.2c-0.4,1-0.2,2.1,0.5,2.9l5.4,5.4c0.6,0.6,1.4,0.9,2.2,0.9s1.6-0.3,2.2-0.9C49.1,41.2,49.1,39.3,47.9,38.1
				L47.9,38.1z M46.8,41.4c-0.6,0.6-1.6,0.6-2.2,0l-5.4-5.4c-0.3-0.3-0.4-0.8-0.2-1.2c0.3-0.7,0.2-1.4-0.3-1.9l-0.9-0.9
				c-0.3-0.3-0.7-0.5-1.2-0.5c-0.4,0-0.9,0.2-1.2,0.5c-0.2,0.2-0.5,0.3-0.8,0.3s-0.6-0.1-0.8-0.3l-5.7-5.7c-4.4-4.4-3.9-7.6-3.3-9
				l21.9,21.9C47.4,39.8,47.4,40.8,46.8,41.4L46.8,41.4z"/>
			<path class="st3" d="M48.6,17c-0.3-0.3-0.8-0.3-1.1,0l-4.8,4.8c-0.3,0.3-0.3,0.8,0,1.1c0.2,0.2,0.3,0.2,0.5,0.2
				c0.2,0,0.4-0.1,0.5-0.2l4.8-4.8C48.9,17.8,48.9,17.4,48.6,17L48.6,17z"/>
			<path class="st3" d="M46.6,14.4c-0.3-0.3-0.8-0.3-1.1,0l-4.9,4.9c-0.7,0.7-1.2,1.7-1.2,2.6l0,1.4L38,24.7c-0.3,0.3-0.3,0.8,0,1.1
				c0.2,0.2,0.3,0.2,0.5,0.2c0.2,0,0.4-0.1,0.5-0.2l1.6-1.6c0.1-0.1,0.2-0.3,0.2-0.5l0-1.7c0-0.5,0.3-1.1,0.8-1.6l4.9-4.9
				C46.8,15.2,46.8,14.7,46.6,14.4L46.6,14.4z"/>
			<path class="st3" d="M33.6,35.3c-0.3-0.3-0.8-0.3-1.1,0l-6,6c-0.3,0.3-0.7,0.4-1.1,0.4c-0.4,0-0.8-0.2-1.1-0.4
				c-0.3-0.3-0.4-0.7-0.4-1.1c0-0.4,0.2-0.8,0.4-1.1l5.8-5.8c0.3-0.3,0.3-0.8,0-1.1s-0.8-0.3-1.1,0l-5.8,5.8
				c-0.6,0.6-0.9,1.3-0.9,2.2c0,0.8,0.3,1.6,0.9,2.2c0.6,0.6,1.3,0.9,2.2,0.9s1.6-0.3,2.2-0.9l6-6C33.9,36,33.9,35.5,33.6,35.3
				L33.6,35.3z"/>
			<path class="st3" d="M51.4,19.2c-0.3-0.3-0.8-0.3-1.1,0l-4.9,4.9c-0.5,0.5-1.1,0.7-1.6,0.7l-1.8,0c-0.2,0-0.4,0.1-0.6,0.2
				l-1.6,1.6c-0.3,0.3-0.3,0.8,0,1.1c0.2,0.2,0.3,0.2,0.5,0.2c0.2,0,0.4-0.1,0.5-0.2l1.4-1.4l1.5,0c1,0,1.9-0.4,2.7-1.2l4.9-4.9
				C51.7,20,51.7,19.5,51.4,19.2L51.4,19.2z"/>
			<path class="st3" d="M52.5,12.4C48.1,8,42.3,5.6,36,5.6S24,8,19.6,12.4s-6.8,10.2-6.8,16.5s2.4,12.1,6.8,16.5s10.2,6.8,16.5,6.8
				s12.1-2.4,16.5-6.8c4.4-4.4,6.8-10.2,6.8-16.5S56.9,16.9,52.5,12.4L52.5,12.4z M51.5,44.3c-4.1,4.1-9.6,6.4-15.4,6.4
				s-11.3-2.3-15.4-6.4c-4.1-4.1-6.4-9.6-6.4-15.4s2.3-11.3,6.4-15.4S30.2,7.1,36,7.1s11.3,2.3,15.4,6.4s6.4,9.6,6.4,15.4
				S55.6,40.2,51.5,44.3L51.5,44.3z"/>
		</g>
	</g>
</g>
</svg>
