<?xml version="1.0" encoding="utf-8"?>
<!-- Generator: Adobe Illustrator 22.1.0, SVG Export Plug-In . SVG Version: 6.00 Build 0)  -->
<svg version="1.1" id="Ebene_1" xmlns="http://www.w3.org/2000/svg" xmlns:xlink="http://www.w3.org/1999/xlink" x="0px" y="0px"
	 viewBox="0 0 72 72" style="enable-background:new 0 0 72 72;" xml:space="preserve">
<style type="text/css">
	.st0{opacity:0.2;enable-background:new    ;}
	.st1{opacity:0.4;enable-background:new    ;}
	.st2{fill:#4BEA06;stroke:#FFFFFF;stroke-width:0.4589;stroke-miterlimit:10;}
	.st3{fill:#FFFFFF;}
</style>
<g>
	<g>
		<g id="schatten_1_">
			<ellipse class="st0" cx="35.9" cy="67.8" rx="20.8" ry="2.7"/>
			<ellipse class="st1" cx="36" cy="67.6" rx="10.3" ry="1.8"/>
		</g>
		<g id="icon_x5F_maps_xA0_Bild_2_">
			<g>
				<path class="st2" d="M36,67.8c-0.2-0.5-7.5-12.8-7.8-12.9c-2.2-0.7-4.4-1.6-6.3-2.8c-5.2-3.2-8.9-7.7-11.1-13.4
					c-0.7-2-1.3-4-1.5-6.1C9.1,31.3,9,30,9,28.7c0.2-6.5,2.3-12.2,6.5-17.1c3.4-4,7.7-6.8,12.7-8.3c1.5-0.4,3-0.7,4.5-0.9
					s3-0.3,4.6-0.2c4.8,0.2,9.2,1.6,13.3,4.2c4.2,2.7,7.4,6.2,9.6,10.7c1.2,2.3,2,4.8,2.4,7.3c0.2,1.2,0.4,2.4,0.4,3.7
					c0.2,6.9-1.8,13-6.2,18.3c-3.5,4.2-7.8,7.1-13.1,8.7C43.4,55,36.2,67.3,36,67.8L36,67.8z"/>
			</g>
		</g>
	</g>
</g>
<g>
	<path class="st3" d="M31.5,43.3c-0.7,0-1.2-0.5-1.2-1.2c0-0.7,0.5-1.2,1.2-1.2c0.7,0,1.2,0.5,1.2,1.2
		C32.7,42.8,32.1,43.3,31.5,43.3L31.5,43.3z M31.5,39.4c-1.5,0-2.8,1.2-2.8,2.8c0,1.5,1.2,2.8,2.8,2.8c1.5,0,2.8-1.2,2.8-2.8
		C34.2,40.6,33,39.4,31.5,39.4L31.5,39.4z"/>
	<path class="st3" d="M41.2,43.3c-0.7,0-1.2-0.5-1.2-1.2c0-0.7,0.5-1.2,1.2-1.2c0.7,0,1.2,0.5,1.2,1.2
		C42.4,42.8,41.8,43.3,41.2,43.3L41.2,43.3z M41.2,39.4c-1.5,0-2.8,1.2-2.8,2.8c0,1.5,1.2,2.8,2.8,2.8c1.5,0,2.8-1.2,2.8-2.8
		C43.9,40.6,42.7,39.4,41.2,39.4L41.2,39.4z"/>
	<path class="st3" d="M30.8,26.3h11.1c0.4,0,0.8-0.3,0.8-0.8c0-0.4-0.3-0.8-0.8-0.8H30.8c-0.4,0-0.8,0.3-0.8,0.8
		C30,26,30.3,26.3,30.8,26.3L30.8,26.3z"/>
	<g>
		<path class="st3" d="M41.3,28.8h-9.9c-0.4,0-0.8,0.3-0.8,0.8c0,0.4,0.3,0.8,0.8,0.8h9.9c0.4,0,0.8-0.3,0.8-0.8
			C42,29.1,41.7,28.8,41.3,28.8L41.3,28.8z"/>
		<path class="st3" d="M46,32.8H26.6l-2.2-10.5l23.8,0L46,32.8L46,32.8z M49.4,21.3c-0.3-0.4-0.7-0.6-1.2-0.6H24.1l-0.5-2.4
			c-0.1-0.5-0.4-0.9-0.9-1.1l-3.4-1.5c-0.4-0.2-0.8,0-1,0.4c-0.2,0.4,0,0.8,0.4,1l3.4,1.5l3.7,18.2c0.1,0.7,0.8,1.2,1.5,1.2h18.5
			c0.4,0,0.8-0.3,0.8-0.8s-0.3-0.8-0.8-0.8H27.4l-0.5-2.2H46c0.7,0,1.4-0.5,1.5-1.2l2.2-10.5C49.8,22.2,49.7,21.7,49.4,21.3
			L49.4,21.3z"/>
	</g>
</g>
</svg>
