<?xml version="1.0" encoding="utf-8"?>
<!-- Generator: Adobe Illustrator 22.1.0, SVG Export Plug-In . SVG Version: 6.00 Build 0)  -->
<svg version="1.1" id="Ebene_1" xmlns="http://www.w3.org/2000/svg" xmlns:xlink="http://www.w3.org/1999/xlink" x="0px" y="0px"
	 viewBox="0 0 72 72" style="enable-background:new 0 0 72 72;" xml:space="preserve">
<style type="text/css">
	.st0{opacity:0.2;enable-background:new    ;}
	.st1{opacity:0.4;enable-background:new    ;}
	.st2{fill:#4BEA06;stroke:#FFFFFF;stroke-width:0.4589;stroke-miterlimit:10;}
	.st3{clip-path:url(#SVGID_2_);fill:#FFFFFF;}
</style>
<g>
	<g>
		<g id="schatten_1_">
			<ellipse class="st0" cx="35.9" cy="67.8" rx="20.8" ry="2.7"/>
			<ellipse class="st1" cx="36" cy="67.6" rx="10.3" ry="1.8"/>
		</g>
		<g id="icon_x5F_maps_xA0_Bild_2_">
			<g>
				<path class="st2" d="M36,67.8c-0.2-0.5-7.5-12.8-7.8-12.9c-2.2-0.7-4.4-1.6-6.3-2.8c-5.2-3.2-8.9-7.7-11.1-13.4
					c-0.7-2-1.3-4-1.5-6.1C9.1,31.3,9,30,9,28.7c0.2-6.5,2.3-12.2,6.5-17.1c3.4-4,7.7-6.8,12.7-8.3c1.5-0.4,3-0.7,4.5-0.9
					s3-0.3,4.6-0.2c4.8,0.2,9.2,1.6,13.3,4.2c4.2,2.7,7.4,6.2,9.6,10.7c1.2,2.3,2,4.8,2.4,7.3c0.2,1.2,0.4,2.4,0.4,3.7
					c0.2,6.9-1.8,13-6.2,18.3c-3.5,4.2-7.8,7.1-13.1,8.7C43.4,55,36.2,67.3,36,67.8L36,67.8z"/>
			</g>
		</g>
	</g>
	<g>
		<g>
			<defs>
				<rect id="SVGID_1_" x="14.6" y="16.7" width="42.9" height="24.6"/>
			</defs>
			<clipPath id="SVGID_2_">
				<use xlink:href="#SVGID_1_"  style="overflow:visible;"/>
			</clipPath>
			<path class="st3" d="M56.3,24.8c-0.4-0.5-1.1-0.8-1.7-0.8h-1v-0.8c0-1.4-1.2-2.5-2.7-2.5h-1.3v-1.4c0-0.7-0.3-1.3-0.8-1.8
				c-1-0.9-2.7-0.9-3.7,0c-0.5,0.5-0.8,1.1-0.8,1.8V26H27.1v-6.7c0-0.7-0.3-1.3-0.8-1.8c-1-0.9-2.7-0.9-3.7,0
				c-0.5,0.5-0.8,1.1-0.8,1.8v1.4h-1.4c-0.7,0-1.3,0.2-1.8,0.7c-0.5,0.4-0.8,1.1-0.8,1.7V24h-1c-0.6,0-1.3,0.3-1.7,0.8
				c-0.4,0.5-0.6,1.2-0.6,1.9v3.9c0,0.7,0.2,1.4,0.6,1.9c0.4,0.5,1.1,0.8,1.7,0.8h1v0.9c0,0.6,0.3,1.3,0.8,1.7
				c0.5,0.4,1.1,0.7,1.8,0.7h1.4V38c0,0.7,0.3,1.3,0.8,1.8c0.5,0.5,1.2,0.7,1.9,0.7c0.7,0,1.4-0.3,1.9-0.7c0.5-0.5,0.8-1.1,0.8-1.8
				v-6.7h17.2V38c0,0.7,0.3,1.3,0.8,1.8c0.5,0.5,1.2,0.7,1.9,0.7c0.7,0,1.4-0.3,1.9-0.7c0.5-0.5,0.8-1.1,0.8-1.8v-1.4h1.3
				c1.5,0,2.7-1.1,2.7-2.5v-0.8h1c0.6,0,1.3-0.3,1.7-0.8c0.4-0.5,0.6-1.2,0.6-1.9v-3.9C56.9,26,56.7,25.3,56.3,24.8L56.3,24.8z
				 M16.9,32c-0.3,0-0.5-0.1-0.7-0.4c-0.2-0.3-0.3-0.6-0.3-1v-3.9c0-0.4,0.1-0.8,0.3-1c0.2-0.2,0.4-0.4,0.7-0.4h1V32H16.9z
				 M20.4,35.3c-0.3,0-0.7-0.1-0.9-0.3c-0.2-0.2-0.3-0.5-0.3-0.7V23.1c0-0.3,0.1-0.5,0.3-0.7c0.2-0.2,0.6-0.3,0.9-0.3h1.4v13.2H20.4
				z M25.8,38c0,0.3-0.1,0.6-0.4,0.8c-0.5,0.5-1.4,0.5-1.9,0c-0.2-0.2-0.4-0.5-0.4-0.8V19.3c0-0.3,0.1-0.6,0.4-0.8
				c0.2-0.2,0.6-0.4,0.9-0.4c0.4,0,0.7,0.1,0.9,0.4c0.2,0.2,0.4,0.5,0.4,0.8V38z M27.1,30v-2.6h17.2V30H27.1z M48.3,38
				c0,0.3-0.1,0.6-0.4,0.8c-0.5,0.5-1.4,0.5-1.9,0c-0.2-0.2-0.4-0.5-0.4-0.8V19.3c0-0.3,0.1-0.6,0.4-0.8c0.2-0.2,0.6-0.4,0.9-0.4
				c0.4,0,0.7,0.1,1,0.4c0.2,0.2,0.4,0.5,0.4,0.8V38z M52.3,34.1c0,0.7-0.6,1.2-1.4,1.2h-1.3V22h1.3c0.8,0,1.4,0.5,1.4,1.2V34.1z
				 M55.6,30.6c0,0.4-0.1,0.7-0.3,1c-0.2,0.2-0.4,0.4-0.7,0.4h-1v-6.6h1c0.2,0,0.5,0.1,0.7,0.4c0.2,0.3,0.3,0.6,0.3,1V30.6z
				 M55.6,30.6"/>
		</g>
	</g>
</g>
</svg>
