<?xml version="1.0" encoding="utf-8"?>
<!-- Generator: Adobe Illustrator 22.1.0, SVG Export Plug-In . SVG Version: 6.00 Build 0)  -->
<svg version="1.1" id="Ebene_1" xmlns="http://www.w3.org/2000/svg" xmlns:xlink="http://www.w3.org/1999/xlink" x="0px" y="0px"
	 viewBox="0 0 72 72" style="enable-background:new 0 0 72 72;" xml:space="preserve">
<style type="text/css">
	.st0{opacity:0.2;enable-background:new    ;}
	.st1{opacity:0.4;enable-background:new    ;}
	.st2{fill:#4BEA06;stroke:#FFFFFF;stroke-width:0.4589;stroke-miterlimit:10;}
	.st3{clip-path:url(#SVGID_2_);fill:#FFFFFF;}
	.st4{clip-path:url(#SVGID_4_);fill:#FFFFFF;}
	.st5{fill:#FFFFFF;}
</style>
<g>
	<g id="schatten">
		<ellipse class="st0" cx="35.9" cy="67.7" rx="20.8" ry="2.7"/>
		<ellipse class="st1" cx="36" cy="67.4" rx="10.3" ry="1.8"/>
	</g>
	<g id="icon_x5F_maps_xA0_Bild_1_">
		<g>
			<path class="st2" d="M35.9,67.7c-0.2-0.5-7.5-12.8-7.8-12.9c-2.2-0.7-4.4-1.6-6.3-2.8c-5.2-3.2-8.9-7.7-11.1-13.4
				c-0.7-2-1.3-4-1.5-6.1C9.1,31.1,9,29.8,9,28.6c0.2-6.5,2.3-12.2,6.5-17.1c3.4-4,7.7-6.8,12.7-8.3c1.5-0.4,3-0.7,4.5-0.9
				s3-0.3,4.6-0.2c4.8,0.2,9.2,1.6,13.3,4.2c4.2,2.7,7.4,6.2,9.6,10.7c1.2,2.3,2,4.8,2.4,7.3c0.2,1.2,0.4,2.4,0.4,3.7
				c0.2,6.9-1.8,13-6.2,18.3c-3.5,4.2-7.8,7.1-13.1,8.7C43.4,54.9,36.2,67.1,35.9,67.7C36,67.7,36,67.7,35.9,67.7z"/>
		</g>
	</g>
	<g id="icons">
		<g>
			<g>
				<g>
					<defs>
						<rect id="SVGID_1_" x="12.5" y="5.3" width="47" height="47.1"/>
					</defs>
					<clipPath id="SVGID_2_">
						<use xlink:href="#SVGID_1_"  style="overflow:visible;"/>
					</clipPath>
					<path class="st3" d="M38.5,10.6c-0.9-0.1-1.8-0.2-2.8-0.2c-9,0-16.8,6.7-18.2,15.6C16.1,36,23,45.4,33.1,46.9
						c0.9,0.1,1.8,0.2,2.8,0.2c9,0,16.8-6.7,18.2-15.6c0.7-4.8-0.5-9.7-3.4-13.6S43.4,11.3,38.5,10.6L38.5,10.6z M53.6,31.4
						c-1.3,8.7-9,15.3-17.8,15.3c-0.9,0-1.8-0.1-2.7-0.2C23.3,45.1,16.5,35.9,18,26.1c1.3-8.7,9-15.3,17.8-15.3
						c0.9,0,1.8,0.1,2.7,0.2c4.8,0.7,8.9,3.2,11.8,7.1C53.1,22,54.3,26.7,53.6,31.4L53.6,31.4z"/>
				</g>
				<g>
					<defs>
						<rect id="SVGID_3_" x="12.5" y="5.3" width="47" height="47.1"/>
					</defs>
					<clipPath id="SVGID_4_">
						<use xlink:href="#SVGID_3_"  style="overflow:visible;"/>
					</clipPath>
					<path class="st4" d="M58.6,29.5c0.2-0.4,0.4-0.7,0.5-0.9c0.3-0.8,0.1-1.5-0.7-2.2c-0.1-0.1-0.2-0.1-0.3-0.2
						c0.2-0.5,0.4-0.9,0.5-1.2c0.2-0.9-0.3-1.5-0.9-1.9c-0.1-0.1-0.3-0.2-0.4-0.2c0-0.2,0.1-0.3,0.1-0.5c0-0.2,0.1-0.3,0.1-0.4
						c0.1-0.4,0.2-0.8,0.2-1c0-1.2-0.9-1.7-1.7-1.9c0.1-0.5,0.1-1,0.1-1.3c-0.2-1.2-1.1-1.4-2-1.5c0-0.3,0-0.6,0-0.8
						c0-0.5,0-0.9-0.1-1.2c-0.4-1.2-1.3-1.3-2-1.3c0,0-0.1,0-0.2,0c-0.1-0.5-0.2-1-0.3-1.2c-0.5-1.1-1.5-1-2.3-0.8
						c-0.1-0.3-0.2-0.6-0.4-0.8c-0.2-0.4-0.3-0.8-0.5-1c-0.3-0.5-0.8-0.7-1.4-0.7c-0.2,0-0.5,0-0.8,0.1c-0.1,0-0.2,0.1-0.3,0.1
						c-0.3-0.5-0.5-0.9-0.7-1c-0.7-0.7-1.4-0.5-2-0.2c-0.2,0.1-0.3,0.2-0.4,0.2c-0.2-0.2-0.4-0.4-0.6-0.6c-0.3-0.4-0.6-0.7-0.8-0.8
						c-0.7-0.5-1.5-0.4-2.3,0.1c-0.1,0.1-0.2,0.1-0.3,0.2c-0.4-0.4-0.7-0.7-1-0.8c-0.9-0.4-1.5,0-2,0.4c-0.1,0.1-0.2,0.2-0.3,0.4
						c-0.2-0.1-0.5-0.3-0.7-0.4c-0.5-0.3-0.8-0.5-1.1-0.5c-0.9-0.2-1.6,0.1-2.1,0.8c-0.1,0.1-0.1,0.2-0.2,0.3
						c-0.5-0.2-0.9-0.4-1.2-0.4c-0.9-0.1-1.5,0.4-1.8,1.1c-0.1,0.2-0.1,0.3-0.2,0.5c-0.3,0-0.6-0.1-0.9-0.2
						c-0.4-0.1-0.8-0.2-1.1-0.2h0c-1.2,0-1.6,1.1-1.7,1.5c0,0.1,0,0.2-0.1,0.3c-0.5,0-1,0-1.2,0c-0.9,0.2-1.2,0.9-1.3,1.6
						c0,0.2,0,0.3,0,0.5c-0.3,0-0.6,0.1-0.8,0.1c-0.5,0.1-0.9,0.1-1.2,0.2c-1.1,0.5-1.2,1.5-1.1,2.3c-0.5,0.1-0.9,0.3-1.2,0.4
						c-1,0.6-0.9,1.6-0.6,2.4c-0.1,0.1-0.2,0.1-0.3,0.2l-0.2,0.1c-0.1,0.1-0.3,0.2-0.4,0.2c-0.4,0.2-0.7,0.4-0.9,0.5
						c-1,0.8-0.6,1.9-0.4,2.2c0,0.1,0.1,0.2,0.1,0.3c-0.4,0.3-0.8,0.6-1,0.8c-0.7,0.7-0.4,1.5-0.1,2.1c0.1,0.2,0.2,0.3,0.3,0.4
						c-0.2,0.3-0.5,0.5-0.7,0.7c-0.3,0.3-0.6,0.6-0.7,0.8c-0.6,1.1,0,1.9,0.6,2.5c-0.3,0.4-0.6,0.8-0.7,1c-0.4,1.1,0.3,1.8,1,2.3
						c-0.1,0.3-0.2,0.5-0.4,0.7c-0.2,0.5-0.4,0.9-0.4,1.1c-0.2,1.2,0.6,1.8,1.3,2.2c-0.2,0.5-0.3,0.9-0.3,1.2c0,1.2,0.9,1.6,1.7,1.8
						c0,0.1,0,0.3,0,0.4l0,0.1c0,0.2,0,0.3,0,0.4c0,0.4-0.1,0.8,0,1c0.1,1.3,1.3,1.5,1.6,1.6c0.1,0,0.2,0,0.3,0c0,0.5,0,1,0.1,1.2
						c0.2,0.9,1,1.1,1.7,1.2c0.2,0,0.3,0,0.5,0c0.1,0.3,0.2,0.6,0.2,0.9c0.1,0.5,0.2,0.9,0.3,1.1c0.4,0.7,1.1,1.1,2,1
						c0.1,0,0.2,0,0.4-0.1c0.2,0.5,0.3,0.9,0.5,1.1c0.6,0.7,1.3,0.8,2,0.6c0.2,0,0.3-0.1,0.4-0.2c0.1,0.2,0.2,0.3,0.3,0.5
						c0.4,0.6,0.6,1,0.9,1.2c0.3,0.3,0.7,0.5,1.2,0.6c0.3,0,0.7-0.1,1.1-0.3c0.1-0.1,0.2-0.1,0.3-0.2c0.3,0.4,0.6,0.7,0.9,0.9
						c0.4,0.3,0.8,0.4,1.1,0.3c0.4-0.1,0.7-0.2,1-0.4c0.1-0.1,0.2-0.2,0.4-0.3c0.2,0.2,0.5,0.4,0.7,0.6c0.4,0.3,0.7,0.6,0.9,0.7
						c0.3,0.1,0.5,0.2,0.8,0.2c0.6,0,1.1-0.4,1.4-0.7c0.1-0.1,0.2-0.2,0.2-0.3c0.4,0.3,0.8,0.5,1.1,0.6c0.9,0.3,1.5-0.2,1.9-0.8
						c0.1-0.1,0.2-0.3,0.3-0.4c0.3,0.1,0.6,0.2,0.9,0.3c0.5,0.2,0.8,0.3,1.1,0.3c0.9,0.1,1.5-0.3,1.9-1.2c0.1-0.1,0.1-0.2,0.1-0.4
						c0.5,0.1,1,0.2,1.2,0.2c0.9-0.1,1.4-0.7,1.6-1.3c0-0.2,0.1-0.3,0.1-0.5c0.2,0,0.3,0,0.5,0c0.2,0,0.5,0,0.7,0c0.4,0,0.6,0,0.8,0
						c0.9-0.2,1.3-0.8,1.5-1.8c0-0.1,0-0.2,0-0.4c0.5-0.1,1-0.1,1.2-0.2c0.9-0.3,1.1-1.1,1.1-1.8c0-0.2,0-0.3,0-0.4
						c0.2-0.1,0.3-0.1,0.5-0.2c0.2,0,0.3-0.1,0.4-0.1c0.4-0.1,0.8-0.2,1-0.4c1-0.7,0.9-1.7,0.7-2.5c0.5-0.2,0.9-0.4,1.1-0.6
						c0.9-0.8,0.6-1.7,0.2-2.5c0.2-0.2,0.4-0.3,0.7-0.5c0.4-0.3,0.8-0.6,0.9-0.8c0.8-1,0.3-1.9-0.1-2.6c0.4-0.4,0.7-0.7,0.8-0.9
						c0.6-1,0-1.8-0.6-2.4c0.1-0.1,0.2-0.3,0.3-0.4C58.5,29.7,58.5,29.6,58.6,29.5L58.6,29.5z M14.2,34.6c-0.7-0.4-1.3-0.8-1.1-1.8
						c0-0.2,0.2-0.6,0.4-1c0.1-0.2,0.2-0.5,0.3-0.7c0.1,0.1,0.3,0.2,0.4,0.3c0.1,0.6,0.2,1.2,0.3,1.7C14.5,33.6,14.4,34.1,14.2,34.6
						L14.2,34.6z M14.3,26c-0.2,0.5-0.5,0.9-0.8,1.3c-0.5-0.5-0.9-1.2-0.5-2c0.1-0.2,0.4-0.4,0.7-0.7c0.2-0.2,0.4-0.4,0.6-0.7
						c0.1,0.1,0.2,0.3,0.2,0.4C14.4,24.8,14.3,25.4,14.3,26L14.3,26z M53.8,14.4c0.1,0.2,0.1,0.6,0.1,1.1c0,0.2,0,0.5,0,0.7
						c-0.2,0-0.3,0-0.5-0.1c-0.3-0.4-0.6-0.9-1-1.3c-0.2-0.4-0.4-1-0.5-1.5C52.7,13.3,53.5,13.4,53.8,14.4L53.8,14.4z M46.3,8.8
						c0.9-0.2,1.4-0.1,1.8,0.5c0.1,0.2,0.3,0.5,0.4,0.9c0.1,0.2,0.2,0.5,0.3,0.7c-0.2,0-0.3,0.1-0.5,0.1c-0.5-0.3-0.9-0.6-1.4-0.9
						c-0.3-0.4-0.6-0.8-0.9-1.3C46.2,8.9,46.2,8.9,46.3,8.8L46.3,8.8z M39.3,6.5C40,6,40.6,6,41.2,6.4c0.2,0.1,0.4,0.4,0.7,0.8
						c0.2,0.2,0.3,0.4,0.5,0.6c-0.1,0.1-0.3,0.2-0.4,0.2c-0.6-0.2-1.1-0.3-1.7-0.4c-0.4-0.2-0.8-0.5-1.2-0.8
						C39.2,6.6,39.2,6.5,39.3,6.5L39.3,6.5z M31.9,6.6c0.3-0.5,0.8-0.8,1.3-0.8c0.2,0,0.3,0,0.5,0.1c0.2,0,0.6,0.3,1,0.5
						c0.2,0.1,0.4,0.2,0.7,0.4C35.1,6.9,35,7,34.9,7.1c-0.6,0-1.1,0.1-1.7,0.1c-0.5-0.1-1-0.2-1.5-0.4C31.8,6.7,31.8,6.6,31.9,6.6
						L31.9,6.6z M24.9,9.1c0.3-0.8,0.7-1.2,1.4-1.2c0.2,0,0.6,0.1,1,0.2c0.2,0,0.5,0.1,0.8,0.1C28,8.3,28,8.4,27.9,8.5
						c-0.5,0.2-1,0.4-1.5,0.7c-0.5,0.1-1,0.1-1.6,0.1C24.8,9.2,24.8,9.1,24.9,9.1L24.9,9.1z M20,12c0.2-0.1,0.6-0.2,1.1-0.2
						c0.2,0,0.5-0.1,0.7-0.1c0,0.2,0,0.3,0,0.5c-0.4,0.4-0.9,0.8-1.3,1.2c-0.4,0.2-0.9,0.4-1.4,0.6C19,13.2,19.1,12.4,20,12L20,12z
						 M15.2,20.1c0-0.1-0.1-0.1-0.1-0.2c-0.3-0.8-0.2-1.4,0.3-1.8c0.2-0.1,0.5-0.3,0.8-0.5c0.1-0.1,0.3-0.1,0.4-0.2l0.2-0.1
						c0.1,0,0.2-0.1,0.3-0.1c0,0.2,0.1,0.3,0.1,0.5c-0.3,0.5-0.6,1-0.8,1.5C16,19.5,15.6,19.8,15.2,20.1L15.2,20.1z M17.1,41.3
						c-0.9-0.2-1.3-0.6-1.3-1.3c0-0.2,0-0.6,0-1c0-0.1,0-0.3,0-0.4l0-0.1c0-0.1,0-0.2,0-0.3c0.2,0,0.3,0.1,0.5,0.2
						c0.2,0.5,0.5,1,0.8,1.5c0.2,0.5,0.2,1,0.2,1.5C17.2,41.3,17.1,41.3,17.1,41.3L17.1,41.3z M22.1,46.7c-0.1,0-0.2,0-0.3,0
						c-0.6,0-1.1-0.3-1.4-0.8c-0.1-0.2-0.2-0.6-0.3-1c-0.1-0.2-0.1-0.5-0.2-0.8c0.2,0,0.3,0,0.5,0c0.4,0.4,0.8,0.8,1.3,1.1
						c0.3,0.4,0.5,0.9,0.7,1.4C22.3,46.7,22.2,46.7,22.1,46.7L22.1,46.7z M28.7,50.1c-0.3,0.2-0.6,0.3-0.9,0.3
						c-0.3,0-0.6-0.2-0.9-0.4c-0.2-0.2-0.5-0.6-0.8-1.1c-0.1-0.1-0.2-0.3-0.2-0.4c0.2-0.1,0.3-0.1,0.5-0.2c0.5,0.2,1,0.5,1.5,0.7
						c0.4,0.3,0.8,0.7,1.1,1.1C28.8,50,28.8,50.1,28.7,50.1L28.7,50.1z M36,51.3c-0.3,0.3-0.7,0.6-1.2,0.6c-0.2,0-0.4-0.1-0.6-0.2
						c-0.2-0.1-0.5-0.3-0.8-0.6c-0.2-0.2-0.4-0.3-0.6-0.5c0.1-0.1,0.3-0.2,0.4-0.3c0.6,0.1,1.1,0.1,1.7,0.1c0.5,0.2,0.9,0.4,1.4,0.7
						C36.1,51.2,36.1,51.2,36,51.3L36,51.3z M43.3,50c-0.3,0.7-0.8,1-1.4,1c0,0-0.1,0-0.2,0c-0.2,0-0.6-0.2-1-0.3
						c-0.2-0.1-0.5-0.2-0.8-0.3c0.1-0.1,0.2-0.3,0.3-0.4c0.6-0.1,1.1-0.3,1.7-0.4c0.5,0,1,0.1,1.5,0.2C43.4,49.9,43.4,49.9,43.3,50
						L43.3,50z M49.8,46.4c-0.1,0.8-0.5,1.3-1.2,1.4c-0.2,0-0.5,0-0.7,0c-0.2,0-0.4,0-0.7,0c-0.2,0-0.3,0-0.4,0
						c0-0.2,0.1-0.4,0.1-0.5c0.5-0.3,0.9-0.6,1.4-0.9c0.5-0.2,1-0.3,1.5-0.4C49.8,46.2,49.8,46.3,49.8,46.4L49.8,46.4z M54.2,42.7
						c-0.2,0.1-0.5,0.2-0.9,0.3c-0.1,0-0.3,0.1-0.4,0.1c-0.1,0-0.3,0.1-0.4,0.2c0-0.2,0-0.4,0-0.5c0.4-0.4,0.7-0.9,1-1.3
						c0.2-0.2,0.4-0.3,0.7-0.5c0.2-0.1,0.5-0.3,0.7-0.4C54.9,41.3,55,42.1,54.2,42.7L54.2,42.7z M35.8,48.1
						c-10.7,0-19.3-8.7-19.3-19.3S25.1,9.4,35.8,9.4s19.3,8.7,19.3,19.3S46.5,48.1,35.8,48.1L35.8,48.1z M56.1,19.4
						c0.7,0.2,1.4,0.6,1.4,1.6c0,0.2-0.1,0.6-0.2,0.9c0,0.1-0.1,0.3-0.1,0.5c0,0.1-0.1,0.3-0.1,0.4c-0.2-0.1-0.3-0.2-0.4-0.2
						c-0.2-0.5-0.4-1.1-0.6-1.6C56,20.5,56.1,19.9,56.1,19.4L56.1,19.4z M57.6,35.9c-0.1,0.2-0.5,0.4-0.8,0.7
						c-0.2,0.1-0.4,0.3-0.6,0.5c-0.1-0.2-0.2-0.3-0.2-0.5c0.2-0.5,0.4-1.1,0.6-1.6c0.2-0.4,0.6-0.8,1-1.2
						C58,34.5,58.3,35.2,57.6,35.9L57.6,35.9z M58.1,29.6c-0.1,0.1-0.2,0.2-0.2,0.4c-0.1-0.1-0.2-0.2-0.3-0.4c0-0.3,0-0.6,0-0.9
						c0-0.3,0-0.5,0-0.8c0.1-0.5,0.3-0.9,0.6-1.4c0.1,0,0.1,0.1,0.2,0.2c0.7,0.6,0.8,1.1,0.6,1.8c-0.1,0.2-0.3,0.5-0.5,0.8
						C58.2,29.4,58.1,29.5,58.1,29.6L58.1,29.6z"/>
				</g>
			</g>
			<path class="st5" d="M41.4,15.4l-0.5,0.5c0,0-2.6,5.1-4.6,8.9c0.4,0.9,0.8,1.6,1.1,2.2L41.4,15.4z"/>
			<path class="st5" d="M34.2,28.8c-1.6,3.2-5.1,4.5-5.3,4.6c-1.2,0.3-2.2,1.2-2.6,2.5c-0.3,0.9-0.2,1.8,0.1,2.6
				c0.4,0.8,1,1.4,1.9,1.7c0.3,0.1,0.5,0.1,0.8,0.1c1.4,0,2.8-1,3.2-2.6c0,0,0,0,0,0c0,0,0,0,0,0l3.2-9.2l0,0L34.6,28
				C34.4,28.4,34.3,28.7,34.2,28.8L34.2,28.8z M31.4,37.4c-0.3,1.1-1.3,1.9-2.2,1.9c-0.2,0-0.4,0-0.5-0.1c-0.5-0.2-1-0.6-1.2-1.1
				c-0.3-0.6-0.3-1.3-0.1-1.9c0.3-1.1,1.3-1.9,2.2-1.9c0.2,0,0.4,0,0.5,0.1c0.5,0.2,1,0.6,1.2,1.1C31.5,36.1,31.6,36.7,31.4,37.4
				L31.4,37.4z"/>
			<path class="st5" d="M42.9,33.5c-0.4-0.2-3.6-1.6-5.1-4.7c-0.2-0.5-6.5-13.1-6.5-13.1l-0.5-0.4l4.1,12.3l1.7,0.8l2.9,9.1
				c0,0.1,0,0.1,0,0.2c0.4,1.6,1.7,2.6,3.2,2.7c0.3,0,0.5,0,0.8-0.1c0.8-0.2,1.5-0.8,1.9-1.6c0.4-0.8,0.5-1.7,0.2-2.6
				C45.1,34.8,44.1,33.8,42.9,33.5L42.9,33.5z M35.8,27.4c-0.3,0-0.5-0.2-0.5-0.6c0-0.3,0.2-0.5,0.6-0.5c0.3,0,0.5,0.2,0.5,0.5
				C36.3,27.2,36.1,27.4,35.8,27.4L35.8,27.4z M44.3,38.3c-0.3,0.6-0.7,0.9-1.2,1.1c-0.2,0-0.3,0.1-0.5,0.1c-1,0-1.9-0.8-2.2-1.9
				c-0.2-0.7-0.1-1.3,0.1-1.9c0.3-0.6,0.7-0.9,1.2-1.1c0.2,0,0.3-0.1,0.5-0.1c1,0,1.9,0.8,2.2,1.9C44.7,37,44.6,37.7,44.3,38.3
				L44.3,38.3z"/>
			<path class="st5" d="M26.2,27.3c0,1.1-0.9,2-2,2c-1.1,0-2-0.9-2-2c0-1.1,0.9-2,2-2C25.2,25.3,26.2,26.2,26.2,27.3L26.2,27.3z"/>
			<path class="st5" d="M49.7,27.3c0,1.1-0.9,2-2,2c-1.1,0-2-0.9-2-2c0-1.1,0.9-2,2-2S49.7,26.2,49.7,27.3L49.7,27.3z"/>
		</g>
	</g>
</g>
</svg>
